<?xml version="1.0" encoding="UTF-8"?>
<svg id="Layer_1" data-name="Layer 1" xmlns="http://www.w3.org/2000/svg" viewBox="0 0 200 200">
  <path d="M50.6,98.48c.37-1.66,.42-3.36,.73-5.04,1.93-10.28,6.82-18.88,14.6-25.84,6.64-5.93,14.41-9.53,23.18-10.94,2.26-.36,4.54-.51,6.82-.5,1.43,0,2.12,.79,2.12,2.37,0,11.38,0,22.77,0,34.15,0,2.44,.02,4.89-.01,7.33,0,.64,.2,1.07,.64,1.5,9.7,9.68,19.38,19.36,29.07,29.05,1.54,1.54,1.51,2.4-.09,3.92-6.51,6.21-14.14,10.37-23.02,11.88-16.69,2.83-30.93-1.95-42.46-14.39-5.6-6.05-9.07-13.26-10.72-21.33-.37-1.79-.62-3.61-.73-5.44,0-.12-.09-.24-.13-.36,0-2.12,0-4.25,0-6.37Zm43.59-17.28c0-6.75-.01-13.5,.02-20.26,0-.75-.2-.95-.93-.84-1.55,.24-3.14,.31-4.68,.61-21.81,4.17-36.39,24.02-33.79,45.98,1.05,8.86,4.59,16.63,10.68,23.11,9.36,9.96,20.95,14.42,34.59,13.27,8.82-.74,16.54-4.17,23.27-9.9,.68-.58,.69-.87,.06-1.5-9.39-9.34-18.74-18.72-28.13-28.07-.76-.76-1.11-1.55-1.11-2.63,.04-6.59,.02-13.18,.02-19.77Z"/>
  <path d="M125.75,96.34c-7.04,0-14.08,0-21.12,0-1.85,0-2.5-.64-2.5-2.49,0-12.89,0-25.78,0-38.67,0-1.64,.74-2.36,2.35-2.34,10.76,.18,20.35,3.6,28.62,10.49,8.79,7.32,14.1,16.68,15.92,27.99,.14,.89,.29,1.78,.36,2.67,.11,1.53-.67,2.35-2.22,2.35-6.04,0-12.09,0-18.13,0-1.09,0-2.19,0-3.28,0Zm-.08-3.87h17.56q2.12,0,1.72-2.1c-3.54-18.56-19.1-32.27-38.07-33.58-.75-.05-.91,.15-.91,.87,.02,11.29,.02,22.58,0,33.87,0,.78,.24,.95,.98,.95,6.24-.03,12.48-.02,18.72-.02Z"/>
  <path d="M127.82,100.41c6.4,0,12.79,0,19.19,0,1.78,0,2.56,.81,2.36,2.57-1.18,10.61-5.49,19.76-12.94,27.41-.97,1-2.06,1-3.05,.02-8.85-8.84-17.69-17.68-26.53-26.52-.69-.69-.94-1.46-.55-2.36,.38-.87,1.12-1.14,2.04-1.14,6.49,.01,12.99,0,19.48,0Zm-14.94,3.86c.12,.21,.15,.3,.21,.36,7.11,7.11,14.22,14.22,21.32,21.34,.4,.4,.59,.28,.9-.08,5.21-5.97,8.47-12.87,9.84-20.67,.12-.7,.02-.98-.82-.98-10.25,.03-20.5,.02-30.75,.02h-.71Z"/>
  <path d="M73.94,100.8c0,2.41,1.94,4.17,4.36,4.24,1.33,.04,2.61,.23,3.84,.76,3.14,1.35,4.98,4.09,4.93,7.36-.04,2.95-2.1,5.79-5.17,6.89-1.01,.36-1.49,.71-1.36,1.9,.15,1.29-.75,2.18-1.9,2.18-1.11,0-2.02-.9-1.93-2.18,.07-1.1-.31-1.54-1.34-1.83-1.48-.42-2.63-1.45-3.69-2.54-.77-.78-.76-1.83-.07-2.61,.71-.8,1.8-.89,2.68-.21,.38,.3,.73,.63,1.1,.94,1.47,1.22,3.13,1.41,4.89,.84,1.83-.59,3.06-2.24,2.93-3.86-.14-1.72-1.63-3.23-3.52-3.6-1.11-.21-2.24-.12-3.35-.39-5.39-1.29-7.98-7.14-5.1-11.56,1.12-1.71,2.7-2.83,4.63-3.41,.61-.18,.75-.45,.69-1.02-.05-.51-.1-1.02,.05-1.53,.25-.89,1.02-1.55,1.89-1.49,.91,.06,1.57,.51,1.84,1.44,.16,.54,.16,1.09,.12,1.63-.05,.62,.18,.89,.78,1.06,1.78,.53,3.4,1.36,4.6,2.84,.6,.75,.69,1.6,.14,2.41-.5,.75-1.25,.96-2.12,.76-.5-.11-.81-.47-1.15-.83-1.59-1.69-4.5-2.26-6.48-1.25-1.38,.7-2.24,1.79-2.3,3.07Z"/>
</svg>