<svg xmlns="http://www.w3.org/2000/svg" width="16" height="17" viewBox="0 0 16 17" fill="none">
  <path fill-rule="evenodd" clip-rule="evenodd" d="M0.832031 8.67985C0.832031 12.6379 4.04066 15.8465 7.9987 15.8465C11.9568 15.8465 15.1654 12.6379 15.1654 8.67985C15.1654 4.72181 11.9568 1.51318 7.9987 1.51318C4.04066 1.51318 0.832031 4.72181 0.832031 8.67985ZM11.1158 6.18842C11.3872 6.43721 11.4056 6.85892 11.1568 7.13034L7.49016 11.1303C7.36723 11.2644 7.19496 11.3424 7.01316 11.3464C6.83136 11.3503 6.65587 11.2799 6.52729 11.1512L4.86062 9.48458C4.60028 9.22425 4.60028 8.80212 4.86062 8.54178C5.12098 8.28145 5.54308 8.28145 5.80344 8.54178L6.97776 9.71612L10.1739 6.22937C10.4227 5.95796 10.8444 5.93962 11.1158 6.18842Z" fill="url(#paint0_linear_346_47395)"/>
  <defs>
    <linearGradient id="paint0_linear_346_47395" x1="0.832031" y1="1.51318" x2="12.7447" y2="14.4892" gradientUnits="userSpaceOnUse">
      <stop stop-color="#21D4FD"/>
      <stop offset="1" stop-color="#324DD5"/>
    </linearGradient>
  </defs>
</svg>