<svg xmlns="http://www.w3.org/2000/svg" width="20" height="20" viewBox="0 0 20 20"
                                fill="none">
                                <g clip-path="url(#clip0_1217_1588)">
                                    <path
                                        d="M3.85707 7.39301C3.38818 6.92411 3.12476 6.28816 3.12476 5.62504C3.12476 4.96192 3.38818 4.32597 3.85707 3.85707C4.32597 3.38818 4.96192 3.12476 5.62504 3.12476C6.28816 3.12476 6.92411 3.38818 7.39301 3.85707L16.143 12.6071C16.6119 13.076 16.8753 13.7119 16.8753 14.375C16.8753 15.0382 16.6119 15.6741 16.143 16.143C15.6741 16.6119 15.0382 16.8753 14.375 16.8753C13.7119 16.8753 13.076 16.6119 12.6071 16.143L3.85707 7.39301Z"
                                        stroke="#363D63" stroke-width="1.6" stroke-linecap="round"
                                        stroke-linejoin="round" />
                                    <path
                                        d="M12.6071 3.85707C13.076 3.38818 13.7119 3.12476 14.375 3.12476C14.7034 3.12476 15.0285 3.18943 15.3319 3.31508C15.6352 3.44073 15.9108 3.6249 16.143 3.85707C16.3752 4.08925 16.5594 4.36487 16.685 4.66822C16.8107 4.97157 16.8753 5.2967 16.8753 5.62504C16.8753 5.95338 16.8107 6.27851 16.685 6.58186C16.5594 6.88521 16.3752 7.16084 16.143 7.39301L7.39301 16.143C7.16084 16.3752 6.88521 16.5594 6.58186 16.685C6.27851 16.8107 5.95338 16.8753 5.62504 16.8753C5.2967 16.8753 4.97157 16.8107 4.66822 16.685C4.36487 16.5594 4.08925 16.3752 3.85707 16.143C3.38818 15.6741 3.12476 15.0382 3.12476 14.375C3.12476 13.7119 3.38818 13.076 3.85707 12.6071L12.6071 3.85707Z"
                                        stroke="#363D63" stroke-width="1.6" stroke-linecap="round"
                                        stroke-linejoin="round" />
                                    <path
                                        d="M10 10.3125C10.1726 10.3125 10.3125 10.1726 10.3125 10C10.3125 9.82741 10.1726 9.6875 10 9.6875C9.82741 9.6875 9.6875 9.82741 9.6875 10C9.6875 10.1726 9.82741 10.3125 10 10.3125Z"
                                        stroke="#363D63" stroke-width="1.6" stroke-linecap="round"
                                        stroke-linejoin="round" />
                                    <path
                                        d="M10 10.9375C10.5178 10.9375 10.9375 10.5178 10.9375 10C10.9375 9.48223 10.5178 9.0625 10 9.0625C9.48223 9.0625 9.0625 9.48223 9.0625 10C9.0625 10.5178 9.48223 10.9375 10 10.9375Z"
                                        fill="#363D63" />
                                </g>
                                <defs>
                                    <clipPath id="clip0_1217_1588">
                                        <rect width="20" height="20" fill="white" />
                                    </clipPath>
                                </defs>
                            </svg>