<svg xmlns="http://www.w3.org/2000/svg" width="16" height="17" viewBox="0 0 16 17" fill="none">
  <g clip-path="url(#clip0_346_47379)">
    <path d="M13.5803 14.2608C16.6628 11.1782 16.6627 6.18045 13.5801 3.09797C10.4975 0.0154813 5.49975 0.015568 2.41727 3.09816C-0.665215 6.18075 -0.665128 11.1785 2.41746 14.261C5.50006 17.3435 10.4978 17.3434 13.5803 14.2608Z" fill="url(#paint0_linear_346_47379)"/>
    <path d="M5.02686 13.373H10.9725C11.3906 13.373 11.7298 13.0338 11.7298 12.6157V6.79379C11.7298 6.77246 11.7277 6.75326 11.7234 6.73406C11.7234 6.73193 11.7234 6.73193 11.7234 6.72979C11.717 6.70206 11.7085 6.67646 11.6957 6.65086C11.6935 6.64446 11.6893 6.64019 11.6871 6.63379C11.6722 6.60819 11.6573 6.58473 11.6359 6.56553L9.14633 4.08019C9.12713 4.06099 9.10366 4.04393 9.07806 4.02899C9.07166 4.02473 9.0674 4.02259 9.061 4.02046C9.03753 4.00766 9.01193 3.99913 8.9842 3.99273C8.98206 3.99273 8.97993 3.99273 8.97993 3.99273C8.96073 3.98846 8.94153 3.98633 8.92233 3.98633H5.02686C4.60873 3.98633 4.26953 4.32553 4.26953 4.74366V12.6178C4.26953 13.0338 4.60873 13.373 5.02686 13.373ZM9.2402 5.07859L10.6354 6.47379H9.35753C9.29353 6.47379 9.2402 6.42046 9.2402 6.35646V5.07859ZM4.90953 4.74366C4.90953 4.67966 4.96286 4.62633 5.02686 4.62633H8.60233V6.35646C8.60233 6.77459 8.94153 7.11379 9.35966 7.11379H11.0898V12.6157C11.0898 12.6797 11.0365 12.733 10.9725 12.733H5.02686C4.96286 12.733 4.90953 12.6797 4.90953 12.6157V4.74366Z" fill="white"/>
    <path d="M6.09344 8.70543C6.17877 8.70543 6.26197 8.6713 6.3217 8.6137C6.38144 8.55396 6.41557 8.47076 6.41557 8.38543C6.41557 8.36623 6.41344 8.3449 6.40917 8.32356C6.4049 8.30436 6.3985 8.28303 6.38997 8.26383C6.38144 8.24463 6.3729 8.22543 6.3601 8.20836C6.34944 8.1913 6.3345 8.17423 6.3217 8.1593C6.20224 8.04196 5.98677 8.04196 5.8673 8.1593C5.8545 8.17423 5.83957 8.1913 5.8289 8.20836C5.8161 8.22543 5.80757 8.24463 5.79904 8.26383C5.7905 8.28303 5.7841 8.30436 5.78197 8.32356C5.7777 8.3449 5.77557 8.36623 5.77557 8.38543C5.77557 8.47076 5.8097 8.55396 5.8673 8.6137C5.92704 8.6713 6.01024 8.70543 6.09344 8.70543ZM5.79904 9.88303C5.80757 9.90223 5.8161 9.9193 5.8289 9.93636C5.83957 9.95556 5.8545 9.9705 5.8673 9.98543C5.88224 10.0004 5.8993 10.0132 5.91637 10.026C5.93344 10.0366 5.95264 10.0473 5.97184 10.0558C5.99104 10.0644 6.01237 10.0686 6.03157 10.0729C6.0529 10.0772 6.07424 10.0793 6.09344 10.0793C6.17877 10.0793 6.26197 10.0452 6.3217 9.98543C6.3793 9.9257 6.41344 9.84463 6.41344 9.7593C6.41344 9.6761 6.3793 9.5929 6.3217 9.53316C6.20224 9.4137 5.98677 9.4137 5.8673 9.53316C5.8097 9.5929 5.77557 9.6761 5.77557 9.7593C5.77557 9.78063 5.7777 9.80196 5.78197 9.8233C5.7841 9.8425 5.7905 9.86383 5.79904 9.88303ZM5.91637 11.3998C5.93344 11.4105 5.95264 11.4212 5.97184 11.4276C5.99104 11.4361 6.01237 11.4425 6.03157 11.4468C6.0529 11.451 6.07424 11.4532 6.09344 11.4532C6.17877 11.4532 6.26197 11.419 6.3217 11.3593C6.3793 11.2996 6.41344 11.2164 6.41344 11.1332C6.41344 11.0478 6.3793 10.9668 6.3217 10.907C6.24704 10.8324 6.1361 10.7982 6.03157 10.8196C6.01237 10.8238 5.99104 10.8302 5.97184 10.8366C5.95264 10.8452 5.93344 10.8558 5.91637 10.8665C5.8993 10.8793 5.88224 10.8921 5.8673 10.907C5.8097 10.9668 5.77344 11.0478 5.77344 11.1332C5.77344 11.2164 5.8097 11.2996 5.8673 11.3593C5.88224 11.3742 5.8993 11.387 5.91637 11.3998ZM7.28597 8.70543H9.90144C10.0785 8.70543 10.2214 8.5625 10.2214 8.38543C10.2214 8.20836 10.0785 8.06543 9.90144 8.06543H7.28597C7.1089 8.06543 6.96597 8.20836 6.96597 8.38543C6.96597 8.5625 7.11104 8.70543 7.28597 8.70543ZM7.28597 10.0793H9.90144C10.0785 10.0793 10.2214 9.93636 10.2214 9.7593C10.2214 9.58223 10.0785 9.4393 9.90144 9.4393H7.28597C7.1089 9.4393 6.96597 9.58223 6.96597 9.7593C6.96597 9.93636 7.11104 10.0793 7.28597 10.0793ZM7.28597 11.4532H9.90144C10.0785 11.4532 10.2214 11.3102 10.2214 11.1332C10.2214 10.9561 10.0785 10.8132 9.90144 10.8132H7.28597C7.1089 10.8132 6.96597 10.9561 6.96597 11.1332C6.96597 11.3102 7.11104 11.4532 7.28597 11.4532Z" fill="white"/>
  </g>
  <defs>
    <linearGradient id="paint0_linear_346_47379" x1="-3.16406" y1="8.67969" x2="16.2193" y2="9.50748" gradientUnits="userSpaceOnUse">
      <stop stop-color="#21D4FD"/>
      <stop offset="1" stop-color="#324DD5"/>
    </linearGradient>
    <clipPath id="clip0_346_47379">
      <rect width="16" height="16" fill="white" transform="translate(0 0.679688)"/>
    </clipPath>
  </defs>
</svg>