<svg xmlns="http://www.w3.org/2000/svg" width="16" height="17" viewBox="0 0 16 17" fill="none">
  <path d="M10.6654 12.5195C10.6654 13.8529 9.33203 15.1862 7.9987 15.1862C6.66536 15.1862 5.33203 13.8529 5.33203 12.5195" stroke="#193CB8" stroke-width="1.5" stroke-linecap="round"/>
  <path d="M10 5.85286C9.6008 5.0558 8.8546 4.51953 8 4.51953C7.1454 4.51953 6.39922 5.0558 6 5.85286" stroke="#193CB8" stroke-width="1.5" stroke-linecap="round"/>
  <path d="M10.2732 13.458C13.0968 15.0541 14.6654 11.4571 14.6654 8.98873C14.6654 6.52047 13.1823 4.51953 11.3529 4.51953C10.7284 4.51953 9.9595 4.83876 9.33203 5.47722" stroke="#193CB8" stroke-width="1.5"/>
  <path d="M5.72419 13.458C2.90066 15.0541 1.33203 11.4571 1.33203 8.98873C1.33203 6.52047 2.81507 4.51953 4.6445 4.51953C5.26898 4.51953 6.03791 4.83876 6.66536 5.47722" stroke="#193CB8" stroke-width="1.5"/>
  <path d="M8 4.51921C8 3.63032 8.4 1.85254 10 1.85254" stroke="#193CB8" stroke-width="1.5" stroke-linecap="round" stroke-linejoin="round"/>
</svg>