<svg xmlns="http://www.w3.org/2000/svg" width="14" height="15" viewBox="0 0 14 15" fill="none">
  <g clip-path="url(#clip0_346_47428)">
    <path d="M10.5 2.70703H3.5C2.77513 2.70703 2.1875 3.29466 2.1875 4.01953V11.0195C2.1875 11.7444 2.77513 12.332 3.5 12.332H10.5C11.2249 12.332 11.8125 11.7444 11.8125 11.0195V4.01953C11.8125 3.29466 11.2249 2.70703 10.5 2.70703Z" stroke="#00C00D" stroke-opacity="0.8" stroke-width="1.6" stroke-linecap="round" stroke-linejoin="round"/>
    <path d="M5.03125 6.20703C5.39369 6.20703 5.6875 5.91322 5.6875 5.55078C5.6875 5.18834 5.39369 4.89453 5.03125 4.89453C4.66881 4.89453 4.375 5.18834 4.375 5.55078C4.375 5.91322 4.66881 6.20703 5.03125 6.20703Z" fill="#00C00D" fill-opacity="0.8"/>
    <path d="M8.96875 6.20703C9.33119 6.20703 9.625 5.91322 9.625 5.55078C9.625 5.18834 9.33119 4.89453 8.96875 4.89453C8.60631 4.89453 8.3125 5.18834 8.3125 5.55078C8.3125 5.91322 8.60631 6.20703 8.96875 6.20703Z" fill="#00C00D" fill-opacity="0.8"/>
    <path d="M5.03125 10.1445C5.39369 10.1445 5.6875 9.85072 5.6875 9.48828C5.6875 9.12584 5.39369 8.83203 5.03125 8.83203C4.66881 8.83203 4.375 9.12584 4.375 9.48828C4.375 9.85072 4.66881 10.1445 5.03125 10.1445Z" fill="#00C00D" fill-opacity="0.8"/>
    <path d="M7 8.17578C7.36244 8.17578 7.65625 7.88197 7.65625 7.51953C7.65625 7.15709 7.36244 6.86328 7 6.86328C6.63756 6.86328 6.34375 7.15709 6.34375 7.51953C6.34375 7.88197 6.63756 8.17578 7 8.17578Z" fill="#00C00D" fill-opacity="0.8"/>
    <path d="M8.96875 10.1445C9.33119 10.1445 9.625 9.85072 9.625 9.48828C9.625 9.12584 9.33119 8.83203 8.96875 8.83203C8.60631 8.83203 8.3125 9.12584 8.3125 9.48828C8.3125 9.85072 8.60631 10.1445 8.96875 10.1445Z" fill="#00C00D" fill-opacity="0.8"/>
  </g>
  <defs>
    <clipPath id="clip0_346_47428">
      <rect width="14" height="14" fill="white" transform="translate(0 0.519531)"/>
    </clipPath>
  </defs>
</svg>