<svg xmlns="http://www.w3.org/2000/svg" width="16" height="17" viewBox="0 0 16 17" fill="none">
  <path d="M1.64159 6.74837C1.47589 6.74837 1.32469 6.61407 1.33231 6.43851C1.37692 5.41045 1.50191 4.74119 1.85209 4.21177C2.05355 3.90718 2.3038 3.64227 2.59152 3.42899C3.3692 2.85254 4.46629 2.85254 6.66047 2.85254H9.33697C11.5311 2.85254 12.6282 2.85254 13.4059 3.42899C13.6936 3.64227 13.9438 3.90718 14.1453 4.21177C14.4955 4.74113 14.6205 5.41031 14.6651 6.43816C14.6727 6.61393 14.5213 6.74837 14.3554 6.74837C13.4316 6.74837 12.6826 7.54121 12.6826 8.51921C12.6826 9.49721 13.4316 10.29 14.3554 10.29C14.5213 10.29 14.6727 10.4245 14.6651 10.6003C14.6205 11.6281 14.4955 12.2973 14.1453 12.8267C13.9438 13.1312 13.6936 13.3961 13.4059 13.6094C12.6282 14.1859 11.5311 14.1859 9.33697 14.1859H6.66047C4.46629 14.1859 3.3692 14.1859 2.59152 13.6094C2.3038 13.3961 2.05355 13.1312 1.85209 12.8267C1.50191 12.2972 1.37692 11.6279 1.33231 10.5999C1.32469 10.4243 1.47589 10.29 1.64159 10.29C2.56545 10.29 3.31438 9.49721 3.31438 8.51921C3.31438 7.54121 2.56545 6.74837 1.64159 6.74837Z" stroke="#193CB8" stroke-linejoin="round"/>
  <path d="M6 2.85254V14.1859" stroke="#193CB8" stroke-linecap="round" stroke-linejoin="round"/>
</svg>