<?xml version="1.0" encoding="UTF-8"?>
<svg id="Layer_1" data-name="Layer 1" xmlns="http://www.w3.org/2000/svg" viewBox="0 0 200 200">
  <path d="M50.59,92.25c.45-1.29,.74-2.64,1.5-3.81,1.84-2.85,4.41-4.52,7.8-4.87,.59-.06,1.12-.26,1.66-.46,21.24-7.93,42.49-15.87,63.73-23.81,3.65-1.36,7.22,.33,8.48,4.05,2.19,6.44,4.38,12.87,6.54,19.32,.22,.64,.5,.97,1.21,1.13,4.56,1.04,7.85,5.17,7.88,9.83,.02,2.67,0,5.34,0,8.01,0,1.71-.73,2.44-2.47,2.46-1.77,.02-3.52,0-5.18,.82-3.4,1.66-5.2,5.21-4.51,9.04,.63,3.5,3.74,6.25,7.4,6.52,.86,.06,1.74,.03,2.6,.08,1.43,.08,2.15,.85,2.16,2.28,.01,2.51,0,5.02,0,7.53,0,6.34-4.33,10.74-10.68,10.79-4.89,.04-9.78,0-14.67,0-12.22,0-24.44,0-36.67,0-8.65,0-17.3,0-25.95,0-4.58,0-7.95-1.99-9.95-6.15-.4-.82-.6-1.74-.89-2.61,0-3.47,0-6.95,0-10.42,.58-1.14,1.55-1.51,2.78-1.44,.67,.04,1.35,0,2.02-.05,3.31-.24,6.17-2.53,7.15-5.69,1-3.22-.08-6.74-2.67-8.84-1.91-1.55-4.14-1.95-6.5-1.83-1.23,.07-2.2-.3-2.78-1.44v-10.42Zm63.25,44.78c8.3,0,16.59,0,24.89,0,3.84,0,6.43-2.52,6.53-6.35,.04-1.61-.04-3.22,.03-4.82,.03-.86-.1-1.34-1.11-1.22-.4,.05-.82-.1-1.24-.17-6.49-1.1-11.14-7.89-9.83-14.33,1.19-5.8,5.6-9.71,11.51-10.15,.51-.04,.66-.2,.65-.68-.02-1.16,0-2.32,0-3.47,0-1.16,.09-2.33-.17-3.46-.68-2.92-3.17-4.76-6.42-4.76-16.24,0-32.48,0-48.72,0-.73,0-1.65-.21-2.15,.14-.48,.35-.12,1.32-.17,2.01-.08,1.08-.85,1.87-1.9,1.94-1.12,.07-2.01-.62-2.16-1.74-.07-.54-.07-1.09-.05-1.64,.02-.51-.11-.74-.69-.74-7.36,.02-14.73-.03-22.09,.04-3.22,.03-5.75,2.49-5.95,5.69-.12,1.99-.03,3.99-.08,5.98-.01,.59,.26,.65,.75,.68,5.88,.32,10.97,5.19,11.53,10.81,.69,6.94-3.94,12.32-9.68,13.63-.85,.19-2.08-.18-2.48,.52-.4,.71-.12,1.81-.11,2.75,.02,1.51-.16,3.04,.16,4.52,.61,2.88,3.15,4.79,6.3,4.8,6.78,.01,13.57,0,20.35,0q1.89,0,1.98-1.85c0-.19,.03-.39,.06-.57,.19-1.06,1.05-1.74,2.13-1.68,1.05,.05,1.86,.84,1.93,1.91,.03,.38,.05,.78,0,1.16-.12,.83,.15,1.07,1.03,1.07,8.39-.04,16.78-.02,25.18-.02Zm-40.89-53.75c0,.07,.02,.14,.03,.21h.94c4.44,0,8.87,0,13.31,0,15.85,0,31.71,0,47.56,0,.23,0,.45-.01,.68,0,.61,.04,.69-.18,.5-.74-2.08-6.07-4.12-12.14-6.19-18.21-.48-1.4-1.5-1.87-2.88-1.42-.18,.06-.36,.13-.54,.2-13.6,5.08-27.21,10.16-40.81,15.25-4.2,1.57-8.39,3.14-12.59,4.71Z"/>
  <path d="M87.64,103.69c0,1.13,.02,2.25,0,3.38-.02,1.18-.84,2.05-1.95,2.12-1.07,.07-2.09-.77-2.12-1.92-.06-2.44-.06-4.89,0-7.33,.03-1.11,1.01-1.9,2.07-1.87,1.1,.03,1.97,.9,2,2.06,.03,1.19,0,2.38,0,3.57Z"/>
  <path d="M87.64,121.03c0,1.16,.02,2.32,0,3.47-.02,1.17-.87,2.04-1.97,2.09-1.1,.05-2.08-.76-2.11-1.93-.06-2.41-.06-4.82,0-7.23,.03-1.16,1.03-2,2.1-1.95,1.11,.05,1.95,.92,1.98,2.09,.02,1.16,0,2.31,0,3.47Z"/>
</svg>