<svg xmlns="http://www.w3.org/2000/svg" width="16" height="17" viewBox="0 0 16 17" fill="none">
  <path d="M13.0013 12.1862C13.0013 13.1067 12.2551 13.8529 11.3346 13.8529C10.4142 13.8529 9.66797 13.1067 9.66797 12.1862C9.66797 11.2657 10.4142 10.5195 11.3346 10.5195C12.2551 10.5195 13.0013 11.2657 13.0013 12.1862Z" stroke="#193CB8" stroke-width="1.5"/>
  <path d="M6.33333 12.1862C6.33333 13.1067 5.58714 13.8529 4.66667 13.8529C3.74619 13.8529 3 13.1067 3 12.1862C3 11.2657 3.74619 10.5195 4.66667 10.5195C5.58714 10.5195 6.33333 11.2657 6.33333 12.1862Z" stroke="#193CB8" stroke-width="1.5"/>
  <path d="M9.66536 12.1865H6.33203M12.9987 12.1865H14.6654V9.18652C14.6654 6.79329 12.6654 4.85319 9.9987 4.85319M9.9987 11.1865V3.85319C9.9987 3.485 9.70023 3.18652 9.33203 3.18652H1.9987C1.63051 3.18652 1.33203 3.485 1.33203 3.85319V11.5168C1.33203 11.8862 1.63238 12.1851 2.00177 12.1835L2.9987 12.1789" stroke="#193CB8" stroke-width="1.5" stroke-linecap="round" stroke-linejoin="round"/>
</svg>