<?xml version="1.0" encoding="UTF-8"?>
<svg id="Layer_1" data-name="Layer 1" xmlns="http://www.w3.org/2000/svg" viewBox="0 0 200 200">
  <path d="M96.19,103.1c6.27,0,12.54,0,18.82,0,2.33,0,3.58,1.17,3.49,3.47-.04,1.01,.28,1.2,1.22,1.19,4.15-.05,8.3,0,12.45-.03,1.76-.01,3.11,.69,4.11,2.1,3.03,4.31,6.05,8.63,9.07,12.95,.66,.95,1,1.98,.99,3.16-.03,3.67,0,7.33-.01,11,0,2.77-1.97,4.74-4.73,4.75-1.32,0-2.64,.02-3.96,0-.47,0-.71,.08-.88,.6-1.17,3.54-3.95,5.59-7.45,5.59-3.43,0-6.25-2.1-7.37-5.57-.16-.5-.38-.62-.86-.61-7.33,.01-14.67,.02-22,0-.53,0-.76,.13-.93,.66-1.11,3.44-3.94,5.52-7.4,5.52-3.45,0-6.29-2.1-7.39-5.54-.18-.56-.44-.65-.94-.64-1.77,.02-3.54,.01-5.31,0-2.07,0-3.33-1.24-3.33-3.28,0-10.68,0-21.36,0-32.03,0-2.05,1.25-3.27,3.32-3.28,6.37,0,12.74,0,19.11,0Zm-.01,3.08c-6.11,0-12.21,.01-18.32-.02-.76,0-1.04,.12-1.03,.97,.03,10.19,.03,20.38,0,30.57,0,.69,.12,.96,.88,.93,1.51-.07,3.02-.06,4.53,0,.7,.03,.97-.21,1.18-.87,1.03-3.24,3.96-5.33,7.34-5.33,3.38,0,6.28,2.1,7.31,5.36,.2,.62,.44,.83,1.11,.83,5.11-.03,10.22-.03,15.33,0,.76,0,.95-.2,.95-.95-.03-10.19-.03-20.38,0-30.57,0-.78-.23-.94-.97-.94-6.11,.03-12.21,.02-18.32,.02Zm37.95,6.18c-.5-1.17-1.27-1.58-2.4-1.57-4.05,.04-8.1,.04-12.16,0-.83,0-1.07,.17-1.06,1.04,.04,8.1,.02,16.21,.02,24.31,0,2.55,0,2.54,2.59,2.47,.44-.01,.68-.08,.79-.58,.15-.72,.47-1.4,.89-2.02,1.8-2.66,4.34-3.94,7.51-3.53,3.17,.41,5.34,2.24,6.36,5.3,.21,.62,.43,.87,1.11,.83,1.19-.06,2.38,0,3.57-.02,1.29-.02,1.88-.61,1.89-1.9,.01-3.54,0-7.07,0-10.61,0-1.27-.13-1.38-1.37-1.38-5.6,0-11.19,0-16.79,0-1.4,0-1.91-.51-1.91-1.91,0-2.83,0-5.66,0-8.49,0-1.45,.5-1.94,1.98-1.94,2.96,0,5.91,0,8.98,0Zm6.59,9.26c-1.44-2.06-2.76-3.95-4.07-5.84-.19-.28-.42-.35-.73-.35-3.02,0-6.03,.01-9.05,0-.43,0-.64,.09-.63,.58,.02,1.67,.02,3.34,0,5.01,0,.45,.13,.61,.6,.61,4.56-.01,9.11,0,13.88,0Zm-49.99,13.9c-2.5,.01-4.6,2.13-4.61,4.62,0,2.53,2.17,4.67,4.69,4.63,2.49-.04,4.6-2.21,4.56-4.67-.05-2.52-2.16-4.6-4.65-4.58Zm43.24,4.64c0-2.5-2.09-4.62-4.59-4.64-2.53-.03-4.69,2.13-4.67,4.66,.02,2.5,2.13,4.59,4.63,4.6,2.47,0,4.62-2.14,4.62-4.61Z"/>
  <path d="M56.78,64.19c.04-6.1,5.06-11.52,11.15-12.01,6.51-.53,12.29,3.9,13.38,10.11,.51,2.89-.26,5.48-1.43,8.01-2.49,5.43-5.87,10.32-9.42,15.09-.74,1-1.89,1.03-2.61,.06-3.87-5.22-7.6-10.52-10.07-16.59-.61-1.49-1.08-3.03-.99-4.67Zm12.3-8.95c-6.65,.12-10.86,6.85-8.51,12.33,2.15,5,5.13,9.48,8.21,13.91,.26,.37,.43,.38,.69,0,3-4.3,5.96-8.61,8-13.47,.49-1.16,.91-2.35,.9-3.62-.04-5.02-4.29-9.18-9.3-9.15Z"/>
  <path d="M130.93,55.24c7.03,0,12.65,5.88,12.28,12.91-.1,1.89-.83,3.62-1.61,5.31-2.49,5.4-5.84,10.26-9.38,15.01-.75,1-1.88,1.05-2.61,.07-3.87-5.21-7.53-10.55-10.1-16.57-3.53-8.25,3.16-16.9,11.41-16.73Zm-.04,3.09c-6.71,.09-10.89,6.86-8.57,12.28,2.15,5.04,5.15,9.54,8.25,13.99,.31,.45,.48,.22,.68-.08,2.92-4.16,5.77-8.36,7.82-13.03,.56-1.27,1.06-2.57,1.06-3.97,.01-5-4.22-9.2-9.25-9.2Z"/>
  <path d="M62.21,115.45c-2.57,0-5.14-.02-7.7,.01-.6,0-.83-.11-.83-.78,0-2.31-.03-2.31,2.27-2.31,4.62,0,9.25,.01,13.87-.01,.64,0,.88,.12,.88,.83-.02,2.27,.02,2.27-2.22,2.27-2.09,0-4.17,0-6.26,0Z"/>
  <path d="M63.76,124.71c-2.02,0-4.04-.03-6.06,.01-.67,.01-.95-.09-.94-.87,.04-2.23,0-2.23,2.26-2.23,3.56,0,7.12,.02,10.69-.01,.7,0,1.01,.1,.99,.92-.05,2.18,0,2.18-2.21,2.18-1.57,0-3.14,0-4.72,0Z"/>
  <path d="M65.22,133.97c-1.54,0-3.08-.03-4.62,.01-.61,.02-.74-.18-.75-.76-.02-2.34-.04-2.34,2.24-2.34,2.6,0,5.2,.02,7.79-.01,.64,0,.8,.19,.8,.81,0,2.29,.03,2.29-2.29,2.29-1.06,0-2.12,0-3.18,0Z"/>
  <path d="M98.62,83.04c-.09,2.06,.31,1.68-2.42,1.61-1.39-.04-.79-1.66-.72-2.39,.15-1.43,1.5-.58,2.29-.71,1.49-.23,.56,1.03,.84,1.48Z"/>
  <path d="M124.17,92.27c0-.26,.03-.52,0-.77-.07-.57,.14-.85,.74-.78,.06,0,.13,0,.19,0,.66,.05,1.58-.49,1.92,0,.47,.65,.33,1.65,.41,2.5,.03,.35-.14,.45-.44,.47-.41,.03-.83,.11-1.24,.12-1.57,.06-1.57,.06-1.57-1.54Z"/>
  <path d="M121.24,91.28c-.2,2.49-.19,2.47-2.57,1.97-.81-.17-1.09-.45-.73-1.27,.27-.6,.24-1.46,.67-1.84,.42-.37,1.17,.22,1.8,.24,.59,.02,1.13,.16,.83,.89Z"/>
  <path d="M101.45,84.45c.09-.49,.26-.96,.25-1.44,0-1.03,.41-1.2,1.36-.96,2.13,.54,2.1,.48,1.44,2.61-.23,.72-.47,1.05-1.25,.7-.43-.19-.93-.25-1.4-.35-.33-.07-.55-.19-.4-.56Z"/>
  <path d="M78.34,87.87c-.6,.16-.61-.18-.69-.38-1-2.38-.85-2.65,1.69-3.23,.42-.1,.6,0,.69,.39,.04,.16,.09,.31,.12,.46,.13,.67,.8,1.55,.38,1.94-.57,.54-1.57,.62-2.18,.82Z"/>
  <path d="M115.87,89.07c-.45,.94-.83,1.74-1.23,2.54-.06,.12-.21,.13-.34,.07-.15-.06-.29-.13-.43-.2-2.36-1.15-2.41-1.34-.8-3.42,.08-.1,.14-.22,.24-.3,.29-.23,.47,.06,.67,.17,.64,.36,1.26,.75,1.89,1.13Z"/>
  <path d="M86.49,85.08c.01,.65-1.16,1.15-2.47,1.2-.41,.01-1.25-1.56-.94-2.54,.34-1.08,1.77-1.07,2.55-.93,1.11,.2,.38,1.64,.86,2.27Z"/>
  <path d="M110.89,85.97c-.55,.71-1.11,1.49-1.75,2.21-.15,.17-.44-.17-.64-.31-1.79-1.2-1.75-1.18-.76-3.08,.36-.68,.68-.77,1.27-.32,.48,.37,1.01,.68,1.51,1.03,.15,.1,.35,.16,.37,.48Z"/>
  <path d="M92.48,83.99c.27,.78-.19,.97-1.02,1.06-1.87,.2-1.86,.24-2.17-1.56-.05-.28-.06-.57-.1-.86-.05-.37,.11-.54,.47-.54,.22,0,.45-.03,.67-.05,2.2-.24,1.96-.62,2.14,1.96Z"/>
  <path d="M76.07,64.57c-.02,3.86-3.14,6.9-7.06,6.88-3.8-.02-6.84-3.14-6.82-7.01,.01-3.86,3.13-6.9,7.06-6.87,3.81,.02,6.85,3.14,6.83,7.01Zm-7.02,3.79c2.07,.05,3.89-1.71,3.93-3.8,.04-2.07-1.74-3.89-3.82-3.91-2.08-.02-3.87,1.75-3.89,3.85-.02,2.03,1.73,3.82,3.78,3.86Z"/>
  <path d="M137.82,67.64c-.02,3.86-3.14,6.91-7.05,6.89-3.8-.02-6.85-3.14-6.83-7,.01-3.86,3.13-6.9,7.05-6.88,3.81,.02,6.86,3.14,6.84,7Zm-3.09-.1c-.03-2.09-1.85-3.86-3.92-3.81-2.1,.05-3.84,1.87-3.79,3.94,.05,2.05,1.84,3.79,3.87,3.77,2.1-.02,3.87-1.82,3.84-3.9Z"/>
</svg>