<svg xmlns="http://www.w3.org/2000/svg" width="16" height="17" viewBox="0 0 16 17" fill="none">
  <g clip-path="url(#clip0_346_47387)">
    <path d="M9.76671 10.5583C9.77077 10.6117 9.75858 10.6645 9.73171 10.7111L9.04421 11.9014C8.97421 12.023 8.93046 12.1611 8.91796 12.3008L8.76202 14.067C8.75671 14.1267 8.73108 14.1836 8.68983 14.227L7.72358 15.2414C7.64577 15.323 7.55327 15.3273 7.50515 15.3226C7.45702 15.318 7.36702 15.2958 7.30671 15.2005L6.79796 14.3967C6.76796 14.3495 6.75389 14.2948 6.75733 14.2392L6.85296 12.5995C6.86827 12.3345 6.77264 12.0714 6.59046 11.8783C6.40827 11.6851 6.15139 11.5742 5.88577 11.5742H5.45264C5.41358 11.5742 5.37452 11.5655 5.33921 11.5489L4.42233 11.1164C4.31671 11.0667 4.25639 10.9555 4.27233 10.8398L4.39702 9.93608C4.41296 9.81951 4.50202 9.72858 4.61827 9.71014L6.59452 9.39389C6.60858 9.3917 6.62233 9.39045 6.63639 9.39045C6.66983 9.39045 6.70264 9.3967 6.73389 9.40889L7.99514 9.9067C8.15858 9.97139 8.33671 9.99014 8.51015 9.96108L9.41889 9.80951C9.49327 9.79701 9.56702 9.81608 9.6264 9.86264C9.68577 9.9092 9.72171 9.97639 9.72733 10.0517L9.76577 10.5583H9.76671ZM12.2051 13.0933C10.6348 16.2783 6.78015 17.587 3.59546 16.017C0.646083 14.563 -0.69423 11.1501 0.370458 8.12389L2.33202 7.66451C2.45827 7.63514 2.59046 7.66233 2.69483 7.73983L3.40202 8.26576C3.59983 8.41295 3.8414 8.49139 4.08577 8.49139C4.14952 8.49139 4.21358 8.48608 4.27702 8.47514L4.83796 8.37889C5.2014 8.3167 5.51421 8.08108 5.67452 7.74889L6.58921 5.85264C6.67421 5.6767 6.86077 5.57889 7.05389 5.6092L7.45327 5.67201C7.88671 5.74045 8.31327 5.55983 8.56577 5.20108L9.12421 4.40795C9.17702 4.43233 9.22952 4.45733 9.28202 4.48295C12.467 6.05326 13.7758 9.90795 12.2058 13.0926L12.2051 13.0933ZM10.468 10.5051L10.4295 9.99858C10.4089 9.72795 10.2748 9.4767 10.0614 9.30951C9.84796 9.14201 9.57171 9.0717 9.30421 9.11608L8.39546 9.26764C8.34796 9.27576 8.29921 9.27045 8.25421 9.25264L6.99296 8.75483C6.8314 8.69108 6.65546 8.67201 6.48421 8.6992L4.50796 9.01545C4.08421 9.08326 3.75983 9.41451 3.70108 9.83983L3.5764 10.7436C3.51827 11.1655 3.73796 11.5708 4.12296 11.7523L5.03983 12.1848C5.16827 12.2455 5.31108 12.2773 5.45296 12.2773H5.88639C5.96014 12.2773 6.02889 12.307 6.07952 12.3608C6.13014 12.4145 6.15577 12.4848 6.15139 12.5586L6.05577 14.1983C6.04389 14.402 6.09546 14.6005 6.20421 14.773L6.71296 15.5767C6.87358 15.8308 7.13733 15.9933 7.43639 16.0226C7.46889 16.0258 7.50139 16.0273 7.53327 16.0273C7.79733 16.0273 8.04827 15.9205 8.23296 15.7264L9.19921 14.712C9.34983 14.5539 9.44358 14.3467 9.46264 14.1289L9.61858 12.363C9.62202 12.3245 9.63389 12.2867 9.65327 12.2533L10.3408 11.063C10.4386 10.8933 10.4826 10.7005 10.468 10.5051ZM2.1714 6.97983C2.49983 6.90295 2.84358 6.9742 3.11421 7.17545L3.8214 7.70139C3.91733 7.77264 4.04014 7.80201 4.15796 7.78201L4.71889 7.68576C4.85889 7.6617 4.97921 7.57108 5.04077 7.44326L5.95546 5.54701C6.17608 5.08983 6.66108 4.83545 7.16296 4.91451L7.56233 4.97733C7.72921 5.00358 7.89327 4.9342 7.99046 4.79608L8.45046 4.14264C5.48296 3.16108 2.17452 4.46826 0.71577 7.32045L2.17171 6.97951L2.1714 6.97983ZM10.617 0.817951C10.3748 1.06014 10.4564 1.53576 10.6964 1.78014C11.0767 2.16701 11.5576 2.65295 11.7617 2.85951C11.5339 3.44076 11.3486 4.07358 11.1601 4.68764C11.1067 4.8617 11.1305 5.04295 11.2561 5.1617C11.3308 5.23264 11.4061 5.30326 11.482 5.37326C11.5451 5.43139 11.6511 5.41701 11.7026 5.34358C12.0398 4.86576 12.2964 4.30201 12.638 3.82014C12.6495 3.80389 12.672 3.80014 12.6864 3.81233C12.7758 3.88639 13.1545 4.21108 13.4748 4.49451C13.4958 4.51295 13.5039 4.5417 13.4995 4.56951C13.4073 4.76326 13.3745 4.84764 13.2845 5.0392C13.2533 5.12014 13.2742 5.20858 13.338 5.26576C13.4545 5.37045 13.588 5.49108 13.7114 5.60045C13.7539 5.63826 13.8208 5.62608 13.8473 5.57576C14.0286 5.23576 14.1673 4.98608 14.3973 4.67451C14.4186 4.64576 14.4442 4.61983 14.473 4.59858C14.7851 4.36826 15.028 4.23014 15.3739 4.04795C15.4245 4.02139 15.4367 3.95451 15.3989 3.9117C15.2895 3.78826 15.1692 3.65483 15.0645 3.53889C15.0073 3.47514 14.9186 3.4542 14.838 3.48545C14.6464 3.57545 14.562 3.60826 14.3683 3.70045C14.3405 3.70514 14.3117 3.6967 14.2933 3.67576C14.0098 3.35545 13.6851 2.9767 13.6111 2.88733C13.5992 2.87295 13.6026 2.85014 13.6189 2.83889C14.1011 2.49733 14.6648 2.24076 15.1423 1.90358C15.2158 1.8517 15.2301 1.74576 15.172 1.68295C15.102 1.60701 15.0317 1.53201 14.9605 1.45701C14.8414 1.3317 14.6605 1.30795 14.4864 1.36108C13.8742 1.54795 13.2395 1.73483 12.6583 1.96264C12.4517 1.75889 11.9658 1.27764 11.5789 0.897326C11.3345 0.657326 10.8589 0.575764 10.6167 0.817951H10.617ZM15.3201 5.97451C15.4601 5.90733 15.5192 5.7392 15.4517 5.5992C15.3455 5.37795 15.223 5.1617 15.0883 4.9567C15.003 4.82701 14.8286 4.79076 14.6989 4.87608C14.5692 4.96139 14.533 5.13576 14.6183 5.26545C14.7392 5.44951 14.8492 5.64389 14.9448 5.84264C15.002 5.9617 15.132 6.02201 15.2555 5.99639C15.2773 5.9917 15.2989 5.98451 15.3201 5.97451ZM15.5611 9.32764C15.413 9.28076 15.2548 9.36295 15.2083 9.51108C15.0795 9.91889 14.8983 10.3095 14.6698 10.672C14.587 10.8036 14.6264 10.977 14.758 11.0598C14.822 11.1001 14.8964 11.1117 14.9651 11.0973C15.0373 11.0823 15.1033 11.0392 15.1458 10.972C15.3998 10.5686 15.6014 10.1342 15.7445 9.68076C15.7914 9.53264 15.7092 9.37451 15.5611 9.32795V9.32764ZM13.8555 11.6592C13.5426 11.9523 13.1936 12.2036 12.8176 12.4067C12.6811 12.4805 12.6298 12.6511 12.7036 12.7876C12.7642 12.8998 12.8898 12.9542 13.0086 12.9295C13.0345 12.9242 13.0601 12.9148 13.0848 12.9017C13.5036 12.6758 13.8923 12.3958 14.2401 12.0698C14.3536 11.9636 14.3592 11.7858 14.253 11.6723C14.1467 11.5589 13.9686 11.5533 13.8555 11.6595V11.6592ZM15.8833 6.87451L15.8805 6.86076C15.8486 6.70858 15.6998 6.61108 15.5476 6.64295C15.3955 6.67483 15.298 6.82358 15.3298 6.97576L15.3326 6.98951C15.4195 7.40639 15.4536 7.83108 15.4336 8.25201C15.4261 8.40733 15.5461 8.53889 15.7011 8.54639C15.7255 8.54764 15.7492 8.54545 15.772 8.54076C15.8945 8.51514 15.9892 8.40951 15.9955 8.27889C16.0176 7.81045 15.9801 7.33795 15.8833 6.87483V6.87451Z" fill="url(#paint0_linear_346_47387)"/>
  </g>
  <defs>
    <linearGradient id="paint0_linear_346_47387" x1="0.0078125" y1="0.671875" x2="13.3144" y2="15.1523" gradientUnits="userSpaceOnUse">
      <stop stop-color="#21D4FD"/>
      <stop offset="1" stop-color="#324DD5"/>
    </linearGradient>
    <clipPath id="clip0_346_47387">
      <rect width="16" height="16" fill="white" transform="translate(0 0.679688)"/>
    </clipPath>
  </defs>
</svg>