<svg xmlns="http://www.w3.org/2000/svg" width="16" height="17" viewBox="0 0 16 17" fill="none">
  <g clip-path="url(#clip0_346_47371)">
    <path fill-rule="evenodd" clip-rule="evenodd" d="M0.5 8.67969C0.5 4.53756 3.85787 1.17969 8 1.17969C12.1421 1.17969 15.5 4.53756 15.5 8.67969C15.5 12.8218 12.1421 16.1797 8 16.1797C3.85787 16.1797 0.5 12.8218 0.5 8.67969ZM6.65433 4.35636C6.74932 4.24429 6.8888 4.17969 7.03573 4.17969H7.9855C8.4805 4.17969 8.93162 4.46064 9.15187 4.90316L10.2382 7.08594H11.5357C12.3466 7.08594 13 7.74569 13 8.55469C13 9.36369 12.3466 10.0234 11.5357 10.0234H10.2382L9.1963 12.117C8.94882 12.6142 8.44205 12.9297 7.88618 12.9297H7.03573C6.8888 12.9297 6.74932 12.8651 6.65433 12.753C6.55933 12.641 6.51842 12.4928 6.54245 12.3479L6.92807 10.0234H4.54465C4.3278 10.0234 4.13567 9.88366 4.06892 9.67734L3.02428 6.44816C2.97505 6.29599 3.0016 6.12946 3.09567 6.00011C3.18977 5.87079 3.34008 5.79426 3.5 5.79426H4.30358C4.42642 5.79426 4.54497 5.83949 4.63662 5.92134L5.94075 7.08594H6.92807L6.54245 4.76151C6.51842 4.61659 6.55933 4.46841 6.65433 4.35636Z" fill="url(#paint0_linear_346_47371)"/>
  </g>
  <defs>
    <linearGradient id="paint0_linear_346_47371" x1="0.5" y1="1.17969" x2="12.9667" y2="14.7592" gradientUnits="userSpaceOnUse">
      <stop stop-color="#21D4FD"/>
      <stop offset="1" stop-color="#324DD5"/>
    </linearGradient>
    <clipPath id="clip0_346_47371">
      <rect width="16" height="16" fill="white" transform="translate(0 0.679688)"/>
    </clipPath>
  </defs>
</svg>