<svg xmlns="http://www.w3.org/2000/svg" width="16" height="16" viewBox="0 0 16 16" fill="none">
  <g clip-path="url(#clip0_637_1722)">
    <path fill-rule="evenodd" clip-rule="evenodd" d="M7.83463 15.0001C3.87659 15.0001 0.667969 11.7915 0.667969 7.83341C0.667969 3.87537 3.87659 0.666748 7.83463 0.666748C11.7927 0.666748 15.0013 3.87537 15.0013 7.83341C15.0013 11.7915 11.7927 15.0001 7.83463 15.0001ZM11.0134 6.2602C11.2492 5.97735 11.211 5.55697 10.9281 5.32126C10.6452 5.08555 10.2248 5.12377 9.98917 5.40662L7.12317 8.84581L5.63937 7.36201C5.37902 7.10168 4.95691 7.10168 4.69656 7.36201C4.43621 7.62235 4.43621 8.04448 4.69656 8.30481L6.69657 10.3048C6.82903 10.4373 7.01103 10.5079 7.19817 10.4994C7.3853 10.4909 7.56023 10.4041 7.6801 10.2602L11.0134 6.2602Z" fill="#0083FF"/>
  </g>
  <defs>
    <clipPath id="clip0_637_1722">
      <rect width="16" height="16" fill="white"/>
    </clipPath>
  </defs>
</svg>