<svg xmlns="http://www.w3.org/2000/svg" width="14" height="15" viewBox="0 0 14 15" fill="none">
  <g clip-path="url(#clip0_207_5864)">
    <path d="M7.29167 1.84668C9.21655 1.84668 10.179 1.84668 10.777 2.44467C11.375 3.04266 11.375 4.00511 11.375 5.93001V9.43001C11.375 11.3549 11.375 12.3173 10.777 12.9154C10.179 13.5133 9.21655 13.5133 7.29167 13.5133H6.70833C4.78343 13.5133 3.82098 13.5133 3.22299 12.9154C2.625 12.3173 2.625 11.3549 2.625 9.43001V5.93001C2.625 4.00511 2.625 3.04266 3.22299 2.44467C3.82098 1.84668 4.78343 1.84668 6.70833 1.84668H7.29167Z" stroke="#0083FF" stroke-linecap="round"/>
    <path d="M4.66797 9.42969H5.83464" stroke="#0083FF" stroke-linecap="round"/>
    <path d="M4.66797 11.1797H5.83464" stroke="#0083FF" stroke-linecap="round"/>
    <path d="M8.16797 9.42969H9.33464" stroke="#0083FF" stroke-linecap="round"/>
    <path d="M8.16797 11.1797H9.33464" stroke="#0083FF" stroke-linecap="round"/>
    <path d="M8.75 5.34668C8.75 6.31318 7.96652 7.09668 7 7.09668C6.03347 7.09668 5.25 6.31318 5.25 5.34668C5.25 4.38018 6.03347 3.59668 7 3.59668C7.96652 3.59668 8.75 4.38018 8.75 5.34668Z" stroke="#0083FF"/>
  </g>
  <defs>
    <clipPath id="clip0_207_5864">
      <rect width="14" height="14" fill="white" transform="translate(0 0.679688)"/>
    </clipPath>
  </defs>
</svg>