<svg xmlns="http://www.w3.org/2000/svg" width="14" height="15" viewBox="0 0 14 15" fill="none">
  <path d="M5.03178 8.07262H4.76405C3.89854 8.07262 3.46579 8.07262 3.28132 7.78725C3.09686 7.50195 3.27262 7.1044 3.62414 6.30934L4.68093 3.91907C5.00053 3.19619 5.16033 2.83474 5.47035 2.63221C5.78036 2.42969 6.17381 2.42969 6.96078 2.42969H8.1796C9.13556 2.42969 9.61355 2.42969 9.7938 2.74198C9.9741 3.05426 9.73698 3.47145 9.26267 4.30582L8.6374 5.40578C8.40161 5.82057 8.28372 6.02797 8.28535 6.19774C8.28751 6.41838 8.40482 6.62164 8.59435 6.73294C8.74018 6.81863 8.97777 6.81863 9.45301 6.81863C10.0538 6.81863 10.3542 6.81863 10.5107 6.92264C10.7139 7.05774 10.8203 7.29947 10.783 7.54155C10.7543 7.72787 10.5522 7.95129 10.1481 8.39818L6.91931 11.9685C6.28511 12.6698 5.96801 13.0205 5.75507 12.9095C5.54213 12.7985 5.64439 12.336 5.84889 11.4108L6.24952 9.59862C6.40521 8.89419 6.48309 8.54197 6.29584 8.3073C6.10859 8.07262 5.74965 8.07262 5.03178 8.07262Z" stroke="#0083FF" stroke-linejoin="round"/>
</svg>