<svg xmlns="http://www.w3.org/2000/svg" width="12" height="13" viewBox="0 0 12 13" fill="none">
  <g clip-path="url(#clip0_207_6516)">
    <path d="M5 7.3854C5 7.2304 5 7.1529 5.01705 7.08935C5.06325 6.9168 5.19805 6.782 5.3706 6.7358C5.43415 6.71875 5.51165 6.71875 5.66665 6.71875H6.33335C6.48835 6.71875 6.56585 6.71875 6.6294 6.7358C6.80195 6.782 6.93675 6.9168 6.98295 7.08935C7 7.1529 7 7.2304 7 7.3854V7.71875C7 8.27105 6.5523 8.71875 6 8.71875C5.4477 8.71875 5 8.27105 5 7.71875V7.3854Z" stroke="#2F7CEB" stroke-width="1.1" stroke-linecap="round" stroke-linejoin="round"/>
    <path d="M6.95 7.46875H7.5413C8.1834 7.46875 8.50445 7.46875 8.7778 7.41085C9.569 7.24325 10.2145 6.7291 10.4969 6.0415C10.5945 5.80395 10.6343 5.51651 10.714 4.9416C10.7439 4.72577 10.7588 4.61786 10.7445 4.52959C10.7026 4.27252 10.4966 4.06194 10.219 3.99257C10.1237 3.96875 10.0032 3.96875 9.7622 3.96875H2.23781C1.99675 3.96875 1.87622 3.96875 1.78093 3.99257C1.50341 4.06194 1.29738 4.27252 1.25552 4.52959C1.24114 4.61786 1.25609 4.72577 1.28599 4.9416C1.36564 5.51651 1.40546 5.80395 1.50304 6.0415C1.7855 6.7291 2.43099 7.24325 3.22218 7.41085C3.49552 7.46875 3.81659 7.46875 4.45871 7.46875H5.05" stroke="#2F7CEB" stroke-width="1.1"/>
    <path d="M1.75 6.46875V7.46875C1.75 9.35435 1.75 10.2972 2.30325 10.8829C2.85649 11.4687 3.74692 11.4688 5.5278 11.4688H6.4722C8.2531 11.4688 9.1435 11.4687 9.69675 10.8829C10.25 10.2972 10.25 9.35435 10.25 7.46875V6.46875" stroke="#2F7CEB" stroke-width="1.1" stroke-linecap="round" stroke-linejoin="round"/>
    <path d="M7.75 3.96875L7.71135 3.79215C7.51885 2.91212 7.4226 2.4721 7.19345 2.22043C6.9643 1.96875 6.65995 1.96875 6.05115 1.96875H5.94885C5.34005 1.96875 5.0357 1.96875 4.80654 2.22043C4.57739 2.4721 4.48114 2.91212 4.28863 3.79215L4.25 3.96875" stroke="#2F7CEB" stroke-width="1.1"/>
  </g>
  <defs>
    <clipPath id="clip0_207_6516">
      <rect width="12" height="12" fill="white" transform="translate(0 0.71875)"/>
    </clipPath>
  </defs>
</svg>