 <svg xmlns="http://www.w3.org/2000/svg" width="20" height="20" viewBox="0 0 20 20"
                                    fill="none">
                                    <g clip-path="url(#clip0_1219_39)">
                                        <path opacity="0.2"
                                            d="M10 9.37501C7.2947 9.37088 4.66176 10.2485 2.5 11.875V14.375C2.50013 14.6061 2.56432 14.8326 2.68543 15.0294C2.80655 15.2262 2.97985 15.3856 3.18608 15.4899C3.39232 15.5941 3.62342 15.6392 3.85371 15.62C4.084 15.6008 4.30447 15.5182 4.49062 15.3813C5.73984 14.4735 7.57812 13.75 10 13.75C12.4219 13.75 14.2602 14.4735 15.5094 15.3813C15.6955 15.5182 15.916 15.6008 16.1463 15.62C16.3766 15.6392 16.6077 15.5941 16.8139 15.4899C17.0202 15.3856 17.1935 15.2262 17.3146 15.0294C17.4357 14.8326 17.4999 14.6061 17.5 14.375V11.875C15.3382 10.2485 12.7053 9.37088 10 9.37501Z"
                                            fill="white" />
                                        <path
                                            d="M2.5 10C2.5 8.01088 3.29018 6.10322 4.6967 4.6967C6.10322 3.29018 8.01088 2.5 10 2.5C11.9891 2.5 13.8968 3.29018 15.3033 4.6967C16.7098 6.10322 17.5 8.01088 17.5 10V14.375C17.4999 14.6061 17.4357 14.8326 17.3146 15.0294C17.1935 15.2262 17.0202 15.3856 16.8139 15.4899C16.6077 15.5941 16.3766 15.6391 16.1463 15.62C15.916 15.6008 15.6955 15.5182 15.5094 15.3812C14.2602 14.4734 12.4219 13.75 10 13.75C7.57812 13.75 5.73984 14.4734 4.49062 15.3812C4.30447 15.5182 4.084 15.6008 3.85371 15.62C3.62342 15.6391 3.39232 15.5941 3.18608 15.4899C2.97985 15.3856 2.80655 15.2262 2.68543 15.0294C2.56432 14.8326 2.50013 14.6061 2.5 14.375V10Z"
                                            stroke="white" stroke-width="1.4" stroke-linecap="round"
                                            stroke-linejoin="round" />
                                        <path
                                            d="M2.5 11.875C4.6637 10.2522 7.29537 9.375 10 9.375C12.7046 9.375 15.3363 10.2522 17.5 11.875"
                                            stroke="white" stroke-width="1.4" stroke-linecap="round"
                                            stroke-linejoin="round" />
                                        <path
                                            d="M6.90625 9.76094C7.23203 5.26797 10 2.5 10 2.5C10 2.5 12.768 5.26797 13.0938 9.76094"
                                            stroke="white" stroke-width="1.4" stroke-linecap="round"
                                            stroke-linejoin="round" />
                                    </g>
                                    <defs>
                                        <clipPath id="clip0_1219_39">
                                            <rect width="20" height="20" fill="white" />
                                        </clipPath>
                                    </defs>
                                </svg>