<svg xmlns="http://www.w3.org/2000/svg" width="16" height="17" viewBox="0 0 16 17" fill="none">
  <path d="M9.33463 8.4817V9.7181C9.33463 10.2704 8.8869 10.7181 8.33463 10.7181H7.33463M7.33463 10.7181V9.10403M7.33463 10.7181V14.0514C7.33463 14.6037 6.8869 15.0514 6.33463 15.0514C5.78235 15.0514 5.33464 14.6037 5.33464 14.0514V10.7181M11.3346 8.05143V9.05143C11.3346 9.6037 10.8869 10.0514 10.3346 10.0514H9.48983M5.33464 10.7181L3.25376 8.63723C2.87868 8.26217 2.66797 7.75343 2.66797 7.22301V6.99032C2.66797 6.59547 2.78484 6.20945 3.00387 5.88092L4.7409 3.27537C5.11183 2.71897 5.73629 2.38477 6.405 2.38477H11.3346C12.4392 2.38477 13.3346 3.28019 13.3346 4.38477V8.38477C13.3346 8.93703 12.8869 9.38477 12.3346 9.38477H11.5504M5.33464 10.7181V7.38477" stroke="#343B47" stroke-width="1.4" stroke-linecap="round" stroke-linejoin="round"/>
</svg>