<svg xmlns="http://www.w3.org/2000/svg" width="14" height="15" viewBox="0 0 14 15" fill="none">
  <g clip-path="url(#clip0_207_5879)">
    <path d="M5.25 12.3467C3.05022 11.8402 1.75 9.82505 1.75 7.97763C1.75 5.78096 3.71593 3.6102 5.0958 2.3571C5.84523 1.67654 6.98816 1.67654 7.73751 2.3571C8.61653 3.15532 9.66869 4.3259 10.3548 5.63835" stroke="#0083FF" stroke-linecap="round"/>
    <path d="M9.91797 9.72167C9.04297 10.305 7.58464 11.4717 6.41797 13.5133M7.58464 11.7633C6.03075 8.34541 9.23821 7.23404 11.6242 7.10589C11.9121 7.09043 12.0561 7.08267 12.1594 7.18242C12.2629 7.28211 12.2568 7.42427 12.2449 7.70859C12.146 10.0727 11.0815 13.284 7.58464 11.7633Z" stroke="#0083FF" stroke-linecap="round" stroke-linejoin="round"/>
  </g>
  <defs>
    <clipPath id="clip0_207_5879">
      <rect width="14" height="14" fill="white" transform="translate(0 0.679688)"/>
    </clipPath>
  </defs>
</svg>