<svg xmlns="http://www.w3.org/2000/svg" width="14" height="15" viewBox="0 0 14 15" fill="none">
  <path d="M4.375 12.0544C4.375 11.4911 4.56664 10.9213 5.0347 10.6079C5.59604 10.2321 6.27223 10.0127 7 10.0127C7.72777 10.0127 8.40397 10.2321 8.96531 10.6079C9.43337 10.9213 9.625 11.4911 9.625 12.0544" stroke="#0083FF" stroke-linecap="round" stroke-linejoin="round"/>
  <path d="M7.0013 8.55436C7.80672 8.55436 8.45964 7.90144 8.45964 7.09603C8.45964 6.29061 7.80672 5.6377 7.0013 5.6377C6.19589 5.6377 5.54297 6.29061 5.54297 7.09603C5.54297 7.90144 6.19589 8.55436 7.0013 8.55436Z" stroke="#0083FF" stroke-linecap="round" stroke-linejoin="round"/>
  <path d="M10.207 7.09668C10.8546 7.09668 11.4562 7.31654 11.9555 7.69308C12.3787 8.01228 12.5404 8.55215 12.5404 9.08223V9.13835" stroke="#0083FF" stroke-linecap="round" stroke-linejoin="round"/>
  <path d="M10.2096 5.63802C10.854 5.63802 11.3763 5.11569 11.3763 4.47135C11.3763 3.82702 10.854 3.30469 10.2096 3.30469C9.5653 3.30469 9.04297 3.82702 9.04297 4.47135C9.04297 5.11569 9.5653 5.63802 10.2096 5.63802Z" stroke="#0083FF" stroke-linecap="round" stroke-linejoin="round"/>
  <path d="M3.79036 7.09668C3.14279 7.09668 2.54113 7.31654 2.04186 7.69308C1.61865 8.01228 1.45703 8.55215 1.45703 9.08223V9.13835" stroke="#0083FF" stroke-linecap="round" stroke-linejoin="round"/>
  <path d="M3.79167 5.63802C4.436 5.63802 4.95833 5.11569 4.95833 4.47135C4.95833 3.82702 4.436 3.30469 3.79167 3.30469C3.14733 3.30469 2.625 3.82702 2.625 4.47135C2.625 5.11569 3.14733 5.63802 3.79167 5.63802Z" stroke="#0083FF" stroke-linecap="round" stroke-linejoin="round"/>
</svg>