<svg xmlns="http://www.w3.org/2000/svg" width="14" height="15" viewBox="0 0 14 15" fill="none">
  <g clip-path="url(#clip0_207_5829)">
    <path d="M10.8767 3.01335C10.7903 2.79017 10.6724 2.60442 10.5115 2.44467C9.90928 1.84668 8.93995 1.84668 7.0013 1.84668C5.06266 1.84668 4.09333 1.84668 3.49108 2.44467C3.33019 2.60442 3.21228 2.79017 3.12587 3.01335M2.91797 11.18C2.96881 12.008 3.1083 12.5353 3.49108 12.9154C4.09333 13.5133 5.06266 13.5133 7.0013 13.5133C8.93995 13.5133 9.90928 13.5133 10.5115 12.9154C10.8943 12.5353 11.0338 12.008 11.0846 11.18" stroke="#0083FF" stroke-linecap="round"/>
    <path d="M3.5 6.5127L4.66667 7.67936M4.66667 6.5127L3.5 7.67936" stroke="#0083FF" stroke-linecap="round" stroke-linejoin="round"/>
    <path d="M6.41797 6.5127L7.58464 7.67936M7.58464 6.5127L6.41797 7.67936" stroke="#0083FF" stroke-linecap="round" stroke-linejoin="round"/>
    <path d="M9.33203 6.5127L10.4987 7.67936M10.4987 6.5127L9.33203 7.67936" stroke="#0083FF" stroke-linecap="round" stroke-linejoin="round"/>
    <path d="M9.91667 4.7627H4.08333C2.98339 4.7627 2.43342 4.7627 2.09171 5.10441C1.75 5.44611 1.75 5.99608 1.75 7.09603C1.75 8.19596 1.75 8.74593 2.09171 9.08765C2.43342 9.42936 2.98339 9.42936 4.08333 9.42936H9.91667C11.0166 9.42936 11.5666 9.42936 11.9083 9.08765C12.25 8.74593 12.25 8.19596 12.25 7.09603C12.25 5.99608 12.25 5.44611 11.9083 5.10441C11.5666 4.7627 11.0166 4.7627 9.91667 4.7627Z" stroke="#0083FF" stroke-linecap="round" stroke-linejoin="round"/>
    <path d="M7 11.7627V11.7685" stroke="#0083FF" stroke-linecap="round" stroke-linejoin="round"/>
  </g>
  <defs>
    <clipPath id="clip0_207_5829">
      <rect width="14" height="14" fill="white" transform="translate(0 0.679688)"/>
    </clipPath>
  </defs>
</svg>