<svg xmlns="http://www.w3.org/2000/svg" width="18" height="18" viewBox="0 0 14 14"
                                    fill="none">
                                    <g clip-path="url(#clip0_1421_6924)">
                                        <path
                                            d="M6.69121 1.00264L3.1912 4.50265C3.02034 4.67351 3.02034 4.95052 3.1912 5.12137L4.06629 5.99647C4.23715 6.16733 4.51416 6.16733 4.68501 5.99647L8.18503 2.49646C8.35588 2.3256 8.35588 2.04859 8.18503 1.87774L7.30993 1.00264C7.13907 0.831786 6.86206 0.831786 6.69121 1.00264Z"
                                            stroke="#324DD5" stroke-width="1.2" stroke-linecap="round"
                                            stroke-linejoin="round" />
                                        <path
                                            d="M11.5037 5.81514L8.0037 9.31515C7.83284 9.48601 7.83284 9.76302 8.0037 9.93387L8.8788 10.809C9.04965 10.9798 9.32666 10.9798 9.49751 10.809L12.9975 7.30896C13.1684 7.1381 13.1684 6.8611 12.9975 6.69024L12.1224 5.81514C11.9516 5.64429 11.6746 5.64429 11.5037 5.81514Z"
                                            stroke="#324DD5" stroke-width="1.2" stroke-linecap="round"
                                            stroke-linejoin="round" />
                                        <path d="M7.96582 2.71582L11.2843 6.03426" stroke="#324DD5" stroke-width="1.2"
                                            stroke-linecap="round" stroke-linejoin="round" />
                                        <path d="M4.90332 5.77832L8.22176 9.09676" stroke="#324DD5" stroke-width="1.2"
                                            stroke-linecap="round" stroke-linejoin="round" />
                                        <path
                                            d="M7.21867 8.09375L3.33586 11.9766C3.1616 12.1502 2.92562 12.2477 2.67961 12.2477C2.4336 12.2477 2.19762 12.1502 2.02336 11.9766C1.84971 11.8023 1.7522 11.5663 1.7522 11.3203C1.7522 11.0743 1.84971 10.8383 2.02336 10.6641L5.90617 6.78125"
                                            stroke="#324DD5" stroke-width="1.2" stroke-linecap="round"
                                            stroke-linejoin="round" />
                                    </g>
                                    <defs>
                                        <clipPath id="clip0_1421_6924">
                                            <rect width="14" height="14" fill="white" />
                                        </clipPath>
                                    </defs>
                                </svg>