<svg xmlns="http://www.w3.org/2000/svg" width="18" height="18" viewBox="0 0 14 14"
                                    fill="none">
                                    <g clip-path="url(#clip0_1421_7024)">
                                        <path
                                            d="M4.8125 12.6875C5.29575 12.6875 5.6875 12.2957 5.6875 11.8125C5.6875 11.3293 5.29575 10.9375 4.8125 10.9375C4.32925 10.9375 3.9375 11.3293 3.9375 11.8125C3.9375 12.2957 4.32925 12.6875 4.8125 12.6875Z"
                                            fill="#324DD5" />
                                        <path
                                            d="M10.5 12.6875C10.9832 12.6875 11.375 12.2957 11.375 11.8125C11.375 11.3293 10.9832 10.9375 10.5 10.9375C10.0168 10.9375 9.625 11.3293 9.625 11.8125C9.625 12.2957 10.0168 12.6875 10.5 12.6875Z"
                                            fill="#324DD5" />
                                        <path
                                            d="M0.875 1.75H2.1875L4.19727 8.98406C4.24841 9.1683 4.3585 9.33071 4.51069 9.44646C4.66288 9.56221 4.8488 9.62492 5.04 9.625H10.4453C10.6366 9.62504 10.8227 9.56238 10.975 9.44662C11.1273 9.33087 11.2374 9.16839 11.2886 8.98406L12.6875 3.9375H2.79508"
                                            stroke="#324DD5" stroke-width="1.2" stroke-linecap="round"
                                            stroke-linejoin="round" />
                                    </g>
                                    <defs>
                                        <clipPath id="clip0_1421_7024">
                                            <rect width="14" height="14" fill="white" />
                                        </clipPath>
                                    </defs>
                                </svg>