<svg xmlns="http://www.w3.org/2000/svg" width="18" height="18" viewBox="0 0 14 14"
                                    fill="none">
                                    <g clip-path="url(#clip0_1421_6988)">
                                        <path
                                            d="M11.375 9.40625C11.7374 9.40625 12.0312 9.11244 12.0312 8.75C12.0312 8.38756 11.7374 8.09375 11.375 8.09375C11.0126 8.09375 10.7188 8.38756 10.7188 8.75C10.7188 9.11244 11.0126 9.40625 11.375 9.40625Z"
                                            fill="#324DD5" />
                                        <path
                                            d="M11.375 10.5C12.3415 10.5 13.125 9.7165 13.125 8.75C13.125 7.7835 12.3415 7 11.375 7C10.4085 7 9.625 7.7835 9.625 8.75C9.625 9.7165 10.4085 10.5 11.375 10.5Z"
                                            stroke="#324DD5" stroke-width="1.2" stroke-linecap="round"
                                            stroke-linejoin="round" />
                                        <path
                                            d="M5.6875 7.875V10.5C5.6875 11.0802 5.91797 11.6366 6.3282 12.0468C6.73844 12.457 7.29484 12.6875 7.875 12.6875H9.1875C9.76766 12.6875 10.3241 12.457 10.7343 12.0468C11.1445 11.6366 11.375 11.0802 11.375 10.5"
                                            stroke="#324DD5" stroke-width="1.2" stroke-linecap="round"
                                            stroke-linejoin="round" />
                                        <path
                                            d="M7.4375 2.1875H8.75V4.76711C8.75 6.44984 7.41125 7.85313 5.72797 7.875C5.3224 7.88036 4.91981 7.8051 4.54357 7.6536C4.16733 7.5021 3.82493 7.27736 3.53625 6.99245C3.24757 6.70753 3.01836 6.36811 2.86193 5.99389C2.7055 5.61967 2.62496 5.2181 2.625 4.8125V2.1875H3.9375"
                                            stroke="#324DD5" stroke-width="1.2" stroke-linecap="round"
                                            stroke-linejoin="round" />
                                    </g>
                                    <defs>
                                        <clipPath id="clip0_1421_6988">
                                            <rect width="14" height="14" fill="white" />
                                        </clipPath>
                                    </defs>
                                </svg>