<svg xmlns="http://www.w3.org/2000/svg" width="14" height="15" viewBox="0 0 14 15" fill="none">
  <g clip-path="url(#clip0_207_5894)">
    <path d="M6.41779 9.43001H1.46657M1.46657 9.43001C2.18728 11.4691 4.13194 12.93 6.41779 12.93C5.48393 12.93 4.72093 10.7355 4.67047 7.97168M1.46657 9.43001C1.30394 8.96994 1.20366 8.48046 1.17578 7.97168" stroke="#0083FF" stroke-linecap="round" stroke-linejoin="round"/>
    <path d="M7.59375 5.34668H12.545M12.545 5.34668C11.8243 3.30759 9.8796 1.84668 7.59375 1.84668C8.52761 1.84668 9.29061 4.04119 9.34107 6.80501M12.545 5.34668C12.7076 5.80674 12.8079 6.29623 12.8358 6.80501" stroke="#0083FF" stroke-linecap="round" stroke-linejoin="round"/>
    <path d="M12.2513 8.84668H8.7513C8.42913 8.84668 8.16797 9.10784 8.16797 9.43001V13.5133L9.48776 12.7215C9.57841 12.6671 9.68213 12.6383 9.78789 12.6383H12.2513C12.5735 12.6383 12.8346 12.3772 12.8346 12.055V9.43001C12.8346 9.10784 12.5735 8.84668 12.2513 8.84668Z" stroke="#0083FF" stroke-linecap="round" stroke-linejoin="round"/>
    <path d="M1.16797 2.43001C1.16797 2.10785 1.42914 1.84668 1.7513 1.84668H5.2513C5.57346 1.84668 5.83463 2.10785 5.83463 2.43001V6.51335L4.51485 5.72148C4.42419 5.66708 4.32045 5.63835 4.21473 5.63835H1.7513C1.42914 5.63835 1.16797 5.37718 1.16797 5.05501V2.43001Z" stroke="#0083FF" stroke-linecap="round" stroke-linejoin="round"/>
  </g>
  <defs>
    <clipPath id="clip0_207_5894">
      <rect width="14" height="14" fill="white" transform="translate(0 0.679688)"/>
    </clipPath>
  </defs>
</svg>