<svg xmlns="http://www.w3.org/2000/svg" width="14" height="15" viewBox="0 0 14 15" fill="none">
  <g clip-path="url(#clip0_207_5873)">
    <path d="M11.5168 8.26335C11.9781 7.60196 12.2487 6.79755 12.2487 5.93001C12.2487 3.67485 10.4205 1.84668 8.16536 1.84668C5.9102 1.84668 4.08203 3.67485 4.08203 5.93001C4.08203 6.55628 4.22302 7.14959 4.47498 7.68001" stroke="#0083FF" stroke-linecap="round" stroke-linejoin="round"/>
    <path d="M8.16667 4.18001C7.52232 4.18001 7 4.57176 7 5.05501C7 5.53826 7.52232 5.93001 8.16667 5.93001C8.81102 5.93001 9.33333 6.32176 9.33333 6.80501C9.33333 7.28825 8.81102 7.68001 8.16667 7.68001M8.16667 4.18001C8.67463 4.18001 9.10677 4.4235 9.26695 4.76335M8.16667 4.18001V3.59668M8.16667 7.68001C7.6587 7.68001 7.22657 7.43653 7.06638 7.09668M8.16667 7.68001V8.26335" stroke="#0083FF" stroke-linecap="round"/>
    <path d="M1.75 8.84668H3.14698C3.31857 8.84668 3.4878 8.88535 3.64127 8.95961L4.83242 9.53595C4.98589 9.6102 5.15512 9.64882 5.32671 9.64882H5.93489C6.52313 9.64882 7 10.1103 7 10.6795C7 10.7025 6.98425 10.7227 6.96138 10.729L5.47917 11.1389C5.21329 11.2124 4.92858 11.1868 4.68125 11.0671L3.4079 10.451M7 10.305L9.67913 9.48187C10.1541 9.33388 10.6675 9.50935 10.965 9.92136C11.1801 10.2192 11.0925 10.6458 10.7791 10.8266L6.39503 13.3561C6.11619 13.517 5.78722 13.5563 5.48051 13.4653L1.75 12.3583" stroke="#0083FF" stroke-linecap="round" stroke-linejoin="round"/>
  </g>
  <defs>
    <clipPath id="clip0_207_5873">
      <rect width="14" height="14" fill="white" transform="translate(0 0.679688)"/>
    </clipPath>
  </defs>
</svg>