<svg xmlns="http://www.w3.org/2000/svg" width="12" height="13" viewBox="0 0 12 13" fill="none">
  <g clip-path="url(#clip0_207_6493)">
    <path d="M6 11.7188C8.76142 11.7188 11 9.48017 11 6.71875C11 3.95733 8.76142 1.71875 6 1.71875C3.23858 1.71875 1 3.95733 1 6.71875C1 9.48017 3.23858 11.7188 6 11.7188Z" stroke="#F05161" stroke-width="1.1" stroke-linecap="round" stroke-linejoin="round"/>
    <path d="M4.75 5.46875C4.75 4.77839 5.30965 4.21875 6 4.21875C6.69035 4.21875 7.25 4.77839 7.25 5.46875C7.25 5.8972 7.03445 6.2753 6.70585 6.50055C6.36415 6.7347 6 7.05455 6 7.46875" stroke="#F05161" stroke-width="1.1" stroke-linecap="round" stroke-linejoin="round"/>
    <path d="M6 9.21875H6.0089" stroke="#F05161" stroke-width="1.1" stroke-linecap="round" stroke-linejoin="round"/>
  </g>
  <defs>
    <clipPath id="clip0_207_6493">
      <rect width="12" height="12" fill="white" transform="translate(0 0.71875)"/>
    </clipPath>
  </defs>
</svg>