 <svg xmlns="http://www.w3.org/2000/svg" width="21" height="20" viewBox="0 0 21 20"
                                    fill="none">
                                    <g clip-path="url(#clip0_1219_25)">
                                        <path opacity="0.2"
                                            d="M10.5 2.5C8.98276 2.49991 7.50117 2.95999 6.25086 3.81949C5.00055 4.67899 4.04033 5.8975 3.49698 7.31411C2.95362 8.73072 2.8527 10.2788 3.20752 11.754C3.56235 13.2291 4.35624 14.562 5.48437 15.5766C5.95489 14.6507 6.67255 13.8732 7.55783 13.3302C8.44311 12.7871 9.46144 12.4998 10.5 12.5C9.88193 12.5 9.27774 12.3167 8.76384 11.9733C8.24994 11.63 7.8494 11.1419 7.61287 10.5709C7.37635 9.99987 7.31446 9.37153 7.43504 8.76534C7.55562 8.15915 7.85325 7.60233 8.29029 7.16529C8.72733 6.72825 9.28415 6.43062 9.89034 6.31005C10.4965 6.18947 11.1249 6.25135 11.6959 6.48788C12.2669 6.7244 12.755 7.12494 13.0983 7.63884C13.4417 8.15275 13.625 8.75693 13.625 9.375C13.625 10.2038 13.2958 10.9987 12.7097 11.5847C12.1237 12.1708 11.3288 12.5 10.5 12.5C11.5385 12.4997 12.5567 12.787 13.442 13.3298C14.3273 13.8727 15.045 14.6501 15.5156 15.5758C16.6435 14.5612 17.4371 13.2284 17.7918 11.7533C18.1464 10.2783 18.0454 8.7304 17.5021 7.31397C16.9588 5.89753 15.9987 4.67916 14.7486 3.81969C13.4984 2.96023 12.0171 2.50008 10.5 2.5Z"
                                            fill="white" />
                                        <path
                                            d="M10.5 12.5C12.2259 12.5 13.625 11.1009 13.625 9.375C13.625 7.64911 12.2259 6.25 10.5 6.25C8.77411 6.25 7.375 7.64911 7.375 9.375C7.375 11.1009 8.77411 12.5 10.5 12.5Z"
                                            stroke="white" stroke-width="1.4" stroke-linecap="round"
                                            stroke-linejoin="round" />
                                        <path
                                            d="M5.48438 15.5757C5.95462 14.6494 6.67216 13.8715 7.55745 13.3281C8.44275 12.7847 9.46123 12.4971 10.5 12.4971C11.5388 12.4971 12.5572 12.7847 13.4425 13.3281C14.3278 13.8715 15.0454 14.6494 15.5156 15.5757"
                                            stroke="white" stroke-width="1.4" stroke-linecap="round"
                                            stroke-linejoin="round" />
                                        <path d="M16.125 10L18 11.875L19.875 10" stroke="white" stroke-width="1.4"
                                            stroke-linecap="round" stroke-linejoin="round" />
                                        <path d="M1.125 10L3 8.125L4.875 10" stroke="white" stroke-width="1.4"
                                            stroke-linecap="round" stroke-linejoin="round" />
                                        <path
                                            d="M3 8.125V10C2.99941 11.5879 3.50281 13.135 4.4377 14.4185C5.3726 15.702 6.69073 16.6557 8.20227 17.1422C9.71382 17.6286 11.3408 17.6228 12.8488 17.1255C14.3568 16.6282 15.6681 15.6652 16.5938 14.375"
                                            stroke="white" stroke-width="1.4" stroke-linecap="round"
                                            stroke-linejoin="round" />
                                        <path
                                            d="M18 11.8749V9.99986C18.0006 8.41197 17.4972 6.86486 16.5623 5.58135C15.6274 4.29785 14.3093 3.34418 12.7977 2.85771C11.2862 2.37124 9.65925 2.37706 8.15123 2.87434C6.64321 3.37162 5.33193 4.3347 4.40625 5.62486"
                                            stroke="white" stroke-width="1.4" stroke-linecap="round"
                                            stroke-linejoin="round" />
                                    </g>
                                    <defs>
                                        <clipPath id="clip0_1219_25">
                                            <rect width="20" height="20" fill="white" transform="translate(0.5)" />
                                        </clipPath>
                                    </defs>
                                </svg>