 <svg xmlns="http://www.w3.org/2000/svg" width="18" height="18" viewBox="0 0 14 14"
                                    fill="none">
                                    <g clip-path="url(#clip0_1421_6961)">
                                        <path d="M3.9375 11.8125H11.8125" stroke="#324DD5" stroke-width="1.2"
                                            stroke-linecap="round" stroke-linejoin="round" />
                                        <path
                                            d="M7.87512 5.6875H11.3751C11.8393 5.6875 12.2844 5.87187 12.6126 6.20006C12.9407 6.52825 13.1251 6.97337 13.1251 7.4375V8.75H3.33934C2.96302 8.75001 2.59673 8.62872 2.29479 8.40411C1.99285 8.17951 1.77136 7.86355 1.66317 7.50312L0.893715 4.93828C0.874108 4.87296 0.870043 4.80396 0.881844 4.73679C0.893645 4.66962 0.920986 4.60614 0.961684 4.55142C1.00238 4.4967 1.05531 4.45224 1.11624 4.42161C1.17717 4.39098 1.24442 4.37502 1.31262 4.375H1.75012L3.06262 5.6875H5.08114L4.39809 3.63836C4.37618 3.57263 4.37019 3.50265 4.38062 3.43416C4.39105 3.36566 4.41759 3.30063 4.45806 3.2444C4.49854 3.18817 4.55179 3.14236 4.61343 3.11074C4.67507 3.07911 4.74334 3.06258 4.81262 3.0625H5.25012L7.87512 5.6875Z"
                                            stroke="#324DD5" stroke-width="1.2" stroke-linecap="round"
                                            stroke-linejoin="round" />
                                    </g>
                                    <defs>
                                        <clipPath id="clip0_1421_6961">
                                            <rect width="14" height="14" fill="white" />
                                        </clipPath>
                                    </defs>
                                </svg>