<svg xmlns="http://www.w3.org/2000/svg" width="14" height="15" viewBox="0 0 14 15" fill="none">
  <path d="M4.08203 7.26859C7.16436 1.52384 11.0024 1.4576 12.5362 2.14257C13.2211 3.6763 13.1548 7.51435 7.41012 10.5967C7.35051 10.2542 7.01923 9.35704 6.17042 8.50829C5.32168 7.65948 4.42452 7.3282 4.08203 7.26859Z" stroke="#0083FF" stroke-linecap="round" stroke-linejoin="round"/>
  <path d="M8.16797 10.48C9.3596 11.0245 9.48683 12.0007 9.65191 12.93C9.65191 12.93 12.1476 11.2081 10.5512 8.84668" stroke="#0083FF" stroke-linecap="round" stroke-linejoin="round"/>
  <path d="M4.19999 6.51335C3.65554 5.32172 2.67928 5.1945 1.75 5.02943C1.75 5.02943 3.47197 2.53365 5.83333 4.1301" stroke="#0083FF" stroke-linecap="round" stroke-linejoin="round"/>
  <path d="M3.62301 8.84668C3.25441 9.21529 2.62778 10.2842 3.0701 11.6112C4.39708 12.0536 5.46603 11.4269 5.83463 11.0583" stroke="#0083FF" stroke-linecap="round" stroke-linejoin="round"/>
  <path d="M10.5574 5.20254C10.5574 4.60743 10.075 4.125 9.47988 4.125C8.88476 4.125 8.40234 4.60743 8.40234 5.20254C8.40234 5.79766 8.88476 6.28009 9.47988 6.28009C10.075 6.28009 10.5574 5.79766 10.5574 5.20254Z" stroke="#0083FF"/>
</svg>