<svg xmlns="http://www.w3.org/2000/svg" width="14" height="15" viewBox="0 0 14 15" fill="none">
  <path d="M1.16797 12.3467H10.5013" stroke="#0083FF" stroke-linecap="round" stroke-linejoin="round"/>
  <path d="M2.23139 7.77625C2.07098 7.65959 1.92514 7.51375 1.75015 7.00334C1.70268 6.87675 1.5233 6.24214 1.37098 5.66166C1.2425 5.17202 1.12802 4.7251 1.1814 4.61166C1.22515 4.495 1.28348 4.4075 1.47306 4.29083C1.58973 4.21904 2.18764 4.07208 2.30431 4.04291C2.42098 4.01375 2.58139 3.99916 2.71264 4.04291C2.96056 4.08666 3.47098 4.83041 3.60223 4.91791C3.66055 4.97625 3.85014 5.14594 4.06889 5.16583C4.22931 5.18041 4.38973 5.13666 4.56473 5.06375C4.72514 4.99691 7.88974 3.45958 8.18141 3.32833C10.5585 2.33666 12.2852 3.96708 12.5477 4.31708C12.8189 4.65541 12.8772 4.7575 12.8043 5.04916C12.7101 5.35541 12.4543 5.41375 12.3085 5.4575C12.1627 5.50125 10.1502 6.04083 9.36266 6.25958C9.19063 6.31559 9.10663 6.42806 9.08558 6.44916C8.98349 6.595 8.51974 7.58667 8.38849 7.80542C8.29808 8.03875 8.05016 8.33042 7.72933 8.44709C7.39391 8.56375 6.81058 8.695 6.67933 8.73875C6.54808 8.7825 6.24183 8.87 6.13974 8.84084C6.00849 8.81167 5.88308 8.68042 5.94141 8.47625C5.99974 8.27209 6.11058 7.70334 6.12516 7.61584C6.13974 7.52834 6.28558 7.16375 6.12516 7.14917C6.09599 7.10542 5.78973 7.23667 5.33764 7.33875C5.00177 7.43331 4.65003 7.52688 4.40431 7.58667C3.45639 7.86375 2.94302 7.93667 2.82931 7.93667C2.61056 7.93667 2.45014 7.9075 2.23139 7.77625Z" stroke="#0083FF"/>
</svg>