<svg xmlns="http://www.w3.org/2000/svg" width="16" height="16" viewBox="0 0 16 16" fill="none">
  <g clip-path="url(#clip0_1132_8513)">
    <path fill-rule="evenodd" clip-rule="evenodd" d="M0.833252 7.9987C0.833252 11.9568 4.04188 15.1654 7.99992 15.1654C11.958 15.1654 15.1666 11.9568 15.1666 7.9987C15.1666 4.04066 11.958 0.832031 7.99992 0.832031C4.04188 0.832031 0.833252 4.04066 0.833252 7.9987ZM11.1171 5.50726C11.3885 5.75606 11.4068 6.17777 11.1581 6.44918L7.49138 10.4492C7.36845 10.5832 7.19618 10.6612 7.01438 10.6652C6.83258 10.6692 6.65709 10.5987 6.52851 10.4701L4.86185 8.80343C4.6015 8.5431 4.6015 8.12096 4.86185 7.86063C5.1222 7.6003 5.54431 7.6003 5.80466 7.86063L6.97899 9.03496L10.1751 5.54822C10.4239 5.2768 10.8457 5.25847 11.1171 5.50726Z" fill="url(#paint0_linear_1132_8513)"/>
  </g>
  <defs>
    <linearGradient id="paint0_linear_1132_8513" x1="0.833252" y1="0.832031" x2="12.7459" y2="13.808" gradientUnits="userSpaceOnUse">
      <stop stop-color="#F29DE2"/>
      <stop offset="1" stop-color="#670543"/>
    </linearGradient>
    <clipPath id="clip0_1132_8513">
      <rect width="16" height="16" fill="white"/>
    </clipPath>
  </defs>
</svg>