<svg xmlns="http://www.w3.org/2000/svg" width="14" height="14" viewBox="0 0 14 14" fill="none">
  <g clip-path="url(#clip0_1132_9506)">
    <path d="M10.5 2.1875H3.5C2.77513 2.1875 2.1875 2.77513 2.1875 3.5V10.5C2.1875 11.2249 2.77513 11.8125 3.5 11.8125H10.5C11.2249 11.8125 11.8125 11.2249 11.8125 10.5V3.5C11.8125 2.77513 11.2249 2.1875 10.5 2.1875Z" stroke="white" stroke-width="1.6" stroke-linecap="round" stroke-linejoin="round"/>
    <path d="M5.03125 5.6875C5.39369 5.6875 5.6875 5.39369 5.6875 5.03125C5.6875 4.66881 5.39369 4.375 5.03125 4.375C4.66881 4.375 4.375 4.66881 4.375 5.03125C4.375 5.39369 4.66881 5.6875 5.03125 5.6875Z" fill="white"/>
    <path d="M8.96875 5.6875C9.33119 5.6875 9.625 5.39369 9.625 5.03125C9.625 4.66881 9.33119 4.375 8.96875 4.375C8.60631 4.375 8.3125 4.66881 8.3125 5.03125C8.3125 5.39369 8.60631 5.6875 8.96875 5.6875Z" fill="white"/>
    <path d="M5.03125 9.625C5.39369 9.625 5.6875 9.33119 5.6875 8.96875C5.6875 8.60631 5.39369 8.3125 5.03125 8.3125C4.66881 8.3125 4.375 8.60631 4.375 8.96875C4.375 9.33119 4.66881 9.625 5.03125 9.625Z" fill="white"/>
    <path d="M7 7.65625C7.36244 7.65625 7.65625 7.36244 7.65625 7C7.65625 6.63756 7.36244 6.34375 7 6.34375C6.63756 6.34375 6.34375 6.63756 6.34375 7C6.34375 7.36244 6.63756 7.65625 7 7.65625Z" fill="white"/>
    <path d="M8.96875 9.625C9.33119 9.625 9.625 9.33119 9.625 8.96875C9.625 8.60631 9.33119 8.3125 8.96875 8.3125C8.60631 8.3125 8.3125 8.60631 8.3125 8.96875C8.3125 9.33119 8.60631 9.625 8.96875 9.625Z" fill="white"/>
  </g>
  <defs>
    <clipPath id="clip0_1132_9506">
      <rect width="14" height="14" fill="white"/>
    </clipPath>
  </defs>
</svg>