<svg xmlns="http://www.w3.org/2000/svg" width="16" height="16" viewBox="0 0 16 16" fill="none">
  <g clip-path="url(#clip0_1132_8497)">
    <path d="M13.5815 13.5811C16.664 10.4985 16.6639 5.50076 13.5813 2.41828C10.4988 -0.664206 5.50098 -0.66412 2.41849 2.41847C-0.663994 5.50107 -0.663907 10.4988 2.41869 13.5813C5.50128 16.6638 10.4991 16.6637 13.5815 13.5811Z" fill="url(#paint0_linear_1132_8497)"/>
    <path d="M5.02833 12.6953H10.9739C11.3921 12.6953 11.7313 12.3561 11.7313 11.9379V6.11606C11.7313 6.09473 11.7291 6.07553 11.7249 6.05633C11.7249 6.05419 11.7249 6.05419 11.7249 6.05206C11.7185 6.02433 11.7099 5.99873 11.6971 5.97313C11.695 5.96673 11.6907 5.96246 11.6886 5.95606C11.6737 5.93046 11.6587 5.90699 11.6374 5.88779L9.1478 3.40246C9.1286 3.38326 9.10513 3.36619 9.07953 3.35126C9.07313 3.34699 9.06886 3.34486 9.06246 3.34273C9.039 3.32993 9.0134 3.32139 8.98566 3.31499C8.98353 3.31499 8.9814 3.31499 8.9814 3.31499C8.9622 3.31073 8.943 3.30859 8.9238 3.30859H5.02833C4.6102 3.30859 4.271 3.64779 4.271 4.06593V11.9401C4.271 12.3561 4.6102 12.6953 5.02833 12.6953ZM9.24166 4.40086L10.6369 5.79606H9.359C9.295 5.79606 9.24166 5.74273 9.24166 5.67873V4.40086ZM4.911 4.06593C4.911 4.00193 4.96433 3.94859 5.02833 3.94859H8.6038V5.67873C8.6038 6.09686 8.943 6.43606 9.36113 6.43606H11.0913V11.9379C11.0913 12.0019 11.0379 12.0553 10.9739 12.0553H5.02833C4.96433 12.0553 4.911 12.0019 4.911 11.9379V4.06593Z" fill="white"/>
    <path d="M6.0949 8.02672C6.18024 8.02672 6.26344 7.99259 6.32317 7.93499C6.3829 7.87525 6.41704 7.79205 6.41704 7.70672C6.41704 7.68752 6.4149 7.66619 6.41064 7.64485C6.40637 7.62565 6.39997 7.60432 6.39144 7.58512C6.3829 7.56592 6.37437 7.54672 6.36157 7.52965C6.3509 7.51259 6.33597 7.49552 6.32317 7.48059C6.2037 7.36325 5.98824 7.36325 5.86877 7.48059C5.85597 7.49552 5.84104 7.51259 5.83037 7.52965C5.81757 7.54672 5.80904 7.56592 5.8005 7.58512C5.79197 7.60432 5.78557 7.62565 5.78344 7.64485C5.77917 7.66619 5.77704 7.68752 5.77704 7.70672C5.77704 7.79205 5.81117 7.87525 5.86877 7.93499C5.9285 7.99259 6.0117 8.02672 6.0949 8.02672ZM5.8005 9.20432C5.80904 9.22352 5.81757 9.24059 5.83037 9.25765C5.84104 9.27685 5.85597 9.29179 5.86877 9.30672C5.8837 9.32165 5.90077 9.33445 5.91784 9.34725C5.9349 9.35792 5.9541 9.36859 5.9733 9.37712C5.9925 9.38565 6.01384 9.38992 6.03304 9.39419C6.05437 9.39845 6.0757 9.40059 6.0949 9.40059C6.18024 9.40059 6.26344 9.36645 6.32317 9.30672C6.38077 9.24699 6.4149 9.16592 6.4149 9.08059C6.4149 8.99739 6.38077 8.91419 6.32317 8.85445C6.2037 8.73499 5.98824 8.73499 5.86877 8.85445C5.81117 8.91419 5.77704 8.99739 5.77704 9.08059C5.77704 9.10192 5.77917 9.12325 5.78344 9.14459C5.78557 9.16379 5.79197 9.18512 5.8005 9.20432ZM5.91784 10.7211C5.9349 10.7318 5.9541 10.7425 5.9733 10.7489C5.9925 10.7574 6.01384 10.7638 6.03304 10.7681C6.05437 10.7723 6.0757 10.7745 6.0949 10.7745C6.18024 10.7745 6.26344 10.7403 6.32317 10.6806C6.38077 10.6209 6.4149 10.5377 6.4149 10.4545C6.4149 10.3691 6.38077 10.2881 6.32317 10.2283C6.2485 10.1537 6.13757 10.1195 6.03304 10.1409C6.01384 10.1451 5.9925 10.1515 5.9733 10.1579C5.9541 10.1665 5.9349 10.1771 5.91784 10.1878C5.90077 10.2006 5.8837 10.2134 5.86877 10.2283C5.81117 10.2881 5.7749 10.3691 5.7749 10.4545C5.7749 10.5377 5.81117 10.6209 5.86877 10.6806C5.8837 10.6955 5.90077 10.7083 5.91784 10.7211ZM7.28744 8.02672H9.9029C10.08 8.02672 10.2229 7.88379 10.2229 7.70672C10.2229 7.52965 10.08 7.38672 9.9029 7.38672H7.28744C7.11037 7.38672 6.96744 7.52965 6.96744 7.70672C6.96744 7.88379 7.1125 8.02672 7.28744 8.02672ZM7.28744 9.40059H9.9029C10.08 9.40059 10.2229 9.25765 10.2229 9.08059C10.2229 8.90352 10.08 8.76059 9.9029 8.76059H7.28744C7.11037 8.76059 6.96744 8.90352 6.96744 9.08059C6.96744 9.25765 7.1125 9.40059 7.28744 9.40059ZM7.28744 10.7745H9.9029C10.08 10.7745 10.2229 10.6315 10.2229 10.4545C10.2229 10.2774 10.08 10.1345 9.9029 10.1345H7.28744C7.11037 10.1345 6.96744 10.2774 6.96744 10.4545C6.96744 10.6315 7.1125 10.7745 7.28744 10.7745Z" fill="white"/>
  </g>
  <defs>
    <linearGradient id="paint0_linear_1132_8497" x1="-3.16284" y1="8" x2="16.2206" y2="8.82779" gradientUnits="userSpaceOnUse">
      <stop stop-color="#F29DE2"/>
      <stop offset="1" stop-color="#670543"/>
    </linearGradient>
    <clipPath id="clip0_1132_8497">
      <rect width="16" height="16" fill="white"/>
    </clipPath>
  </defs>
</svg>