<svg xmlns="http://www.w3.org/2000/svg" width="18" height="18" viewBox="0 0 18 18" fill="none">
  <path d="M5.91904 7.0178L4.10558 8.96963C3.86378 9.21855 3.43226 9.8682 3.38019 10.4633C3.32542 11.089 3.88922 11.9866 4.10558 12.3303C4.66953 13.2259 4.89661 13.723 5.55635 14.5707C5.91463 15.0311 6.88243 15.9487 8.4579 16.0643C9.63397 16.1506 10.8046 16.1425 11.3594 16.0643C11.7403 16.0105 12.6651 15.8402 13.5355 14.944C14.4061 14.0479 14.6236 12.5792 14.6236 11.9569V5.98243C14.6236 5.60903 14.4061 4.86222 13.5355 4.86222C12.6651 4.86222 12.4475 5.60903 12.4475 5.98243V8.59628M5.91904 10.4633V4.48882C5.91904 4.11541 6.13665 3.36861 7.00712 3.36861C7.87755 3.36861 8.0952 4.11541 8.0952 4.48882M8.0952 4.48882V7.84943M8.0952 4.48882V2.99521C8.0952 2.6218 8.31278 1.875 9.1833 1.875C10.0537 1.875 10.2713 2.6218 10.2713 2.99521V4.48882M10.2713 4.48882V7.84943M10.2713 4.48882C10.2713 4.11541 10.489 3.36861 11.3594 3.36861C12.2299 3.36861 12.4475 4.11541 12.4475 4.48882V6.35583" stroke="#445447" stroke-width="1.125" stroke-linecap="round" stroke-linejoin="round"/>
</svg>