<svg xmlns="http://www.w3.org/2000/svg" width="16" height="16" viewBox="0 0 16 16" fill="none">
  <g clip-path="url(#clip0_1132_8489)">
    <path fill-rule="evenodd" clip-rule="evenodd" d="M0.5 8C0.5 3.85787 3.85787 0.5 8 0.5C12.1421 0.5 15.5 3.85787 15.5 8C15.5 12.1421 12.1421 15.5 8 15.5C3.85787 15.5 0.5 12.1421 0.5 8ZM6.65433 3.67668C6.74932 3.5646 6.8888 3.5 7.03573 3.5H7.9855C8.4805 3.5 8.93162 3.78095 9.15187 4.22347L10.2382 6.40625H11.5357C12.3466 6.40625 13 7.066 13 7.875C13 8.684 12.3466 9.34375 11.5357 9.34375H10.2382L9.1963 11.4373C8.94882 11.9345 8.44205 12.25 7.88618 12.25H7.03573C6.8888 12.25 6.74932 12.1854 6.65433 12.0733C6.55933 11.9613 6.51842 11.8131 6.54245 11.6682L6.92807 9.34375H4.54465C4.3278 9.34375 4.13567 9.20397 4.06892 8.99765L3.02428 5.76848C2.97505 5.6163 3.0016 5.44978 3.09567 5.32043C3.18977 5.1911 3.34008 5.11457 3.5 5.11457H4.30358C4.42642 5.11457 4.54497 5.1598 4.63662 5.24165L5.94075 6.40625H6.92807L6.54245 4.08182C6.51842 3.9369 6.55933 3.78873 6.65433 3.67668Z" fill="url(#paint0_linear_1132_8489)"/>
  </g>
  <defs>
    <linearGradient id="paint0_linear_1132_8489" x1="0.5" y1="0.5" x2="12.9667" y2="14.0795" gradientUnits="userSpaceOnUse">
      <stop stop-color="#F29DE2"/>
      <stop offset="1" stop-color="#670543"/>
    </linearGradient>
    <clipPath id="clip0_1132_8489">
      <rect width="16" height="16" fill="white"/>
    </clipPath>
  </defs>
</svg>