<svg xmlns="http://www.w3.org/2000/svg" width="16" height="16" viewBox="0 0 16 16" fill="none">
  <g clip-path="url(#clip0_1132_8505)">
    <path d="M9.76573 9.87858C9.76979 9.93201 9.75761 9.98483 9.73073 10.0314L9.04323 11.2217C8.97323 11.3433 8.92948 11.4814 8.91698 11.6211L8.76104 13.3873C8.75573 13.447 8.73011 13.5039 8.68886 13.5473L7.72261 14.5617C7.64479 14.6433 7.55229 14.6476 7.50417 14.643C7.45604 14.6383 7.36604 14.6161 7.30573 14.5208L6.79698 13.717C6.76698 13.6698 6.75292 13.6151 6.75636 13.5595L6.85198 11.9198C6.86729 11.6548 6.77167 11.3917 6.58948 11.1986C6.40729 11.0055 6.15042 10.8945 5.88479 10.8945H5.45167C5.41261 10.8945 5.37354 10.8858 5.33823 10.8692L4.42136 10.4367C4.31573 10.387 4.25542 10.2758 4.27136 10.1601L4.39604 9.25639C4.41198 9.13983 4.50104 9.04889 4.61729 9.03045L6.59354 8.7142C6.60761 8.71201 6.62136 8.71076 6.63542 8.71076C6.66886 8.71076 6.70167 8.71701 6.73292 8.7292L7.99417 9.22701C8.15761 9.2917 8.33573 9.31045 8.50917 9.28139L9.41792 9.12983C9.49229 9.11733 9.56604 9.13639 9.62542 9.18295C9.68479 9.22951 9.72073 9.2967 9.72636 9.37201L9.76479 9.87858H9.76573ZM12.2042 12.4136C10.6339 15.5986 6.77917 16.9073 3.59448 15.3373C0.645106 13.8833 -0.695206 10.4705 0.369481 7.4442L2.33104 6.98483C2.45729 6.95545 2.58948 6.98264 2.69386 7.06014L3.40104 7.58608C3.59886 7.73326 3.84042 7.8117 4.08479 7.8117C4.14854 7.8117 4.21261 7.80639 4.27604 7.79545L4.83698 7.6992C5.20042 7.63701 5.51323 7.40139 5.67354 7.0692L6.58823 5.17295C6.67323 4.99701 6.85979 4.8992 7.05292 4.92951L7.45229 4.99233C7.88573 5.06076 8.31229 4.88014 8.56479 4.52139L9.12323 3.72826C9.17604 3.75264 9.22854 3.77764 9.28104 3.80326C12.466 5.37358 13.7748 9.22826 12.2048 12.413L12.2042 12.4136ZM10.467 9.82545L10.4285 9.31889C10.4079 9.04826 10.2739 8.79701 10.0604 8.62983C9.84698 8.46233 9.57073 8.39201 9.30323 8.43639L8.39448 8.58795C8.34698 8.59608 8.29823 8.59076 8.25323 8.57295L6.99198 8.07514C6.83042 8.01139 6.65448 7.99233 6.48323 8.01951L4.50698 8.33576C4.08323 8.40358 3.75886 8.73483 3.70011 9.16014L3.57542 10.0639C3.51729 10.4858 3.73698 10.8911 4.12198 11.0726L5.03886 11.5051C5.16729 11.5658 5.31011 11.5976 5.45198 11.5976H5.88542C5.95917 11.5976 6.02792 11.6273 6.07854 11.6811C6.12917 11.7348 6.15479 11.8051 6.15042 11.8789L6.05479 13.5186C6.04292 13.7223 6.09448 13.9208 6.20323 14.0933L6.71198 14.897C6.87261 15.1511 7.13636 15.3136 7.43542 15.343C7.46792 15.3461 7.50042 15.3476 7.53229 15.3476C7.79636 15.3476 8.04729 15.2408 8.23198 15.0467L9.19823 14.0323C9.34886 13.8742 9.44261 13.667 9.46167 13.4492L9.61761 11.6833C9.62104 11.6448 9.63292 11.607 9.65229 11.5736L10.3398 10.3833C10.4376 10.2136 10.4817 10.0208 10.467 9.82545ZM2.17042 6.30014C2.49886 6.22326 2.84261 6.29451 3.11323 6.49576L3.82042 7.0217C3.91636 7.09295 4.03917 7.12233 4.15698 7.10233L4.71792 7.00608C4.85792 6.98201 4.97823 6.89139 5.03979 6.76358L5.95448 4.86733C6.17511 4.41014 6.66011 4.15576 7.16198 4.23483L7.56136 4.29764C7.72823 4.32389 7.89229 4.25451 7.98948 4.11639L8.44948 3.46295C5.48198 2.48139 2.17354 3.78858 0.714794 6.64076L2.17073 6.29983L2.17042 6.30014ZM10.616 0.138264C10.3739 0.380452 10.4554 0.856077 10.6954 1.10045C11.0757 1.48733 11.5567 1.97326 11.7607 2.17983C11.5329 2.76108 11.3476 3.39389 11.1592 4.00795C11.1057 4.18201 11.1295 4.36326 11.2551 4.48201C11.3298 4.55295 11.4051 4.62358 11.481 4.69358C11.5442 4.7517 11.6501 4.73733 11.7017 4.66389C12.0389 4.18608 12.2954 3.62233 12.637 3.14045C12.6485 3.1242 12.671 3.12045 12.6854 3.13264C12.7748 3.2067 13.1535 3.53139 13.4739 3.81483C13.4948 3.83326 13.5029 3.86201 13.4985 3.88983C13.4064 4.08358 13.3735 4.16795 13.2835 4.35951C13.2523 4.44045 13.2732 4.52889 13.337 4.58608C13.4535 4.69076 13.587 4.81139 13.7104 4.92076C13.7529 4.95858 13.8198 4.94639 13.8464 4.89608C14.0276 4.55608 14.1664 4.30639 14.3964 3.99483C14.4176 3.96608 14.4432 3.94014 14.472 3.91889C14.7842 3.68858 15.027 3.55045 15.3729 3.36826C15.4235 3.3417 15.4357 3.27483 15.3979 3.23201C15.2885 3.10858 15.1682 2.97514 15.0635 2.8592C15.0064 2.79545 14.9176 2.77451 14.837 2.80576C14.6454 2.89576 14.561 2.92858 14.3673 3.02076C14.3395 3.02545 14.3107 3.01701 14.2923 2.99608C14.0089 2.67576 13.6842 2.29701 13.6101 2.20764C13.5982 2.19326 13.6017 2.17045 13.6179 2.1592C14.1001 1.81764 14.6639 1.56108 15.1414 1.22389C15.2148 1.17201 15.2292 1.06608 15.171 1.00326C15.101 0.927327 15.0307 0.852326 14.9595 0.777326C14.8404 0.652014 14.6595 0.628264 14.4854 0.681389C13.8732 0.868264 13.2385 1.05514 12.6573 1.28295C12.4507 1.0792 11.9648 0.597951 11.5779 0.217639C11.3335 -0.022361 10.8579 -0.103924 10.6157 0.138264H10.616ZM15.3192 5.29483C15.4592 5.22764 15.5182 5.05951 15.4507 4.91951C15.3445 4.69826 15.222 4.48201 15.0873 4.27701C15.002 4.14733 14.8276 4.11108 14.6979 4.19639C14.5682 4.2817 14.532 4.45608 14.6173 4.58576C14.7382 4.76983 14.8482 4.9642 14.9439 5.16295C15.001 5.28201 15.131 5.34233 15.2545 5.3167C15.2764 5.31201 15.2979 5.30483 15.3192 5.29483ZM15.5601 8.64795C15.412 8.60108 15.2539 8.68326 15.2073 8.83139C15.0785 9.2392 14.8973 9.62983 14.6689 9.99233C14.586 10.1239 14.6254 10.2973 14.757 10.3801C14.821 10.4205 14.8954 10.432 14.9642 10.4176C15.0364 10.4026 15.1023 10.3595 15.1448 10.2923C15.3989 9.88889 15.6004 9.45451 15.7435 9.00108C15.7904 8.85295 15.7082 8.69483 15.5601 8.64826V8.64795ZM13.8545 10.9795C13.5417 11.2726 13.1926 11.5239 12.8167 11.727C12.6801 11.8008 12.6289 11.9714 12.7026 12.108C12.7632 12.2201 12.8889 12.2745 13.0076 12.2498C13.0335 12.2445 13.0592 12.2351 13.0839 12.222C13.5026 11.9961 13.8914 11.7161 14.2392 11.3901C14.3526 11.2839 14.3582 11.1061 14.252 10.9926C14.1457 10.8792 13.9676 10.8736 13.8545 10.9798V10.9795ZM15.8823 6.19483L15.8795 6.18108C15.8476 6.02889 15.6989 5.93139 15.5467 5.96326C15.3945 5.99514 15.297 6.14389 15.3289 6.29608L15.3317 6.30983C15.4185 6.7267 15.4526 7.15139 15.4326 7.57233C15.4251 7.72764 15.5451 7.8592 15.7001 7.8667C15.7245 7.86795 15.7482 7.86576 15.771 7.86108C15.8935 7.83545 15.9882 7.72983 15.9945 7.5992C16.0167 7.13076 15.9792 6.65826 15.8823 6.19514V6.19483Z" fill="url(#paint0_linear_1132_8505)"/>
  </g>
  <defs>
    <linearGradient id="paint0_linear_1132_8505" x1="0.00683594" y1="-0.0078125" x2="13.3135" y2="14.4726" gradientUnits="userSpaceOnUse">
      <stop stop-color="#F29DE2"/>
      <stop offset="1" stop-color="#670543"/>
    </linearGradient>
    <clipPath id="clip0_1132_8505">
      <rect width="16" height="16" fill="white"/>
    </clipPath>
  </defs>
</svg>